<?xml version="1.0" standalone="no"?>
<!DOCTYPE svg PUBLIC "-//W3C//DTD SVG 20010904//EN"
 "http://www.w3.org/TR/2001/REC-SVG-20010904/DTD/svg10.dtd">
<svg version="1.0" xmlns="http://www.w3.org/2000/svg"
 width="260.000000pt" height="260.000000pt" viewBox="0 0 260.000000 260.000000"
 preserveAspectRatio="xMidYMid meet">
<metadata>
Created by potrace 1.11, written by Peter Selinger 2001-2013
</metadata>
<g transform="translate(0.000000,260.000000) scale(0.100000,-0.100000)"
fill="#000000" stroke="none">
<path d="M1229 2556 c-2 -2 -33 -6 -69 -9 -337 -31 -702 -250 -895 -538 -289
-431 -293 -955 -9 -1391 255 -392 753 -621 1204 -553 293 44 532 164 735 369
100 101 164 192 229 323 201 410 169 860 -90 1253 -177 269 -507 477 -843 531
-69 11 -254 22 -262 15z m-34 -811 c32 -9 60 -17 61 -18 1 -1 -3 -26 -8 -55
-12 -60 -5 -58 -103 -21 -87 33 -221 34 -288 0 -61 -30 -97 -81 -97 -139 0
-49 12 -77 38 -91 10 -5 74 -26 143 -46 211 -62 255 -102 253 -235 -1 -89 -17
-132 -73 -193 -78 -85 -205 -124 -364 -114 -81 6 -218 35 -233 50 -6 6 15 117
22 117 3 0 27 -11 54 -25 177 -90 384 -64 445 56 8 15 15 50 15 77 0 74 -23
96 -128 128 -226 68 -255 82 -287 145 -26 49 -19 137 16 207 43 88 112 139
224 169 63 16 229 10 310 -12z m521 10 c172 -51 217 -244 95 -404 -14 -18
-122 -117 -240 -220 l-214 -186 212 -3 212 -2 -7 -38 c-4 -20 -9 -40 -11 -44
-2 -5 -135 -8 -295 -8 l-290 0 7 48 c4 26 9 50 11 54 3 4 87 78 187 165 247
214 315 280 343 335 59 117 1 228 -120 228 -53 0 -131 -19 -207 -51 -38 -15
-69 -24 -69 -19 0 5 5 31 11 59 l10 49 77 20 c134 36 211 40 288 17z m384
-605 c61 -33 36 -223 -38 -280 -34 -27 -103 -27 -127 0 -44 49 -21 196 40 257
35 35 85 44 125 23z m-198 -275 c-3 -16 -11 -25 -23 -25 -14 0 -19 7 -19 25 0
20 5 25 24 25 19 0 22 -4 18 -25z"/>
<path d="M2004 1113 c-39 -40 -67 -170 -45 -211 15 -27 61 -29 84 -4 39 43 61
152 43 210 -9 27 -56 30 -82 5z"/>
</g>
</svg>
