<?xml version="1.0" standalone="no"?>
<!DOCTYPE svg PUBLIC "-//W3C//DTD SVG 20010904//EN"
 "http://www.w3.org/TR/2001/REC-SVG-20010904/DTD/svg10.dtd">
<svg version="1.0" xmlns="http://www.w3.org/2000/svg"
 width="690.000000pt" height="690.000000pt" viewBox="0 0 690.000000 690.000000"
 preserveAspectRatio="xMidYMid meet">
<metadata>
Created by potrace 1.11, written by Peter Selinger 2001-2013
</metadata>
<g transform="translate(0.000000,690.000000) scale(0.100000,-0.100000)"
fill="#000000" stroke="none">
<path d="M0 6890 c0 -7 1157 -10 3450 -10 2293 0 3450 3 3450 10 0 7 -1157 10
-3450 10 -2293 0 -3450 -3 -3450 -10z"/>
<path d="M3170 6789 c-807 -69 -1544 -404 -2113 -958 -491 -478 -816 -1076
-946 -1741 -45 -230 -55 -344 -55 -625 0 -281 10 -395 55 -625 238 -1221 1148
-2210 2361 -2568 987 -292 2061 -126 2908 449 672 456 1155 1132 1359 1901 80
304 105 503 105 843 0 281 -10 395 -55 625 -238 1221 -1148 2210 -2361 2568
-397 118 -858 166 -1258 131z m317 -104 c38 -14 96 -47 128 -72 l59 -47 -29
-12 c-44 -19 -48 -18 -103 26 -28 23 -61 40 -75 40 -17 0 -24 5 -23 17 1 20
-38 30 -57 15 -7 -5 -29 -12 -49 -16 -49 -9 -232 -144 -286 -211 -22 -28 -53
-66 -70 -85 l-30 -35 -12 30 c-13 34 -9 43 50 115 19 23 46 56 59 72 24 29
137 110 198 142 34 17 126 44 155 45 9 1 48 -10 85 -24z m-592 -70 c56 -19
135 -62 135 -73 0 -4 -9 -18 -18 -30 l-19 -24 -50 31 c-88 55 -180 75 -237 52
-15 -6 -10 -11 29 -32 39 -20 62 -44 122 -129 40 -58 73 -110 73 -115 0 -24
53 -174 85 -240 30 -64 33 -77 24 -104 -6 -17 -14 -31 -18 -31 -12 0 -87 160
-121 259 -40 117 -137 263 -208 311 l-33 23 -38 -20 c-30 -16 -41 -18 -54 -8
-25 18 -21 29 18 64 70 62 203 110 245 90 8 -4 38 -15 65 -24z m1251 16 c5 -5
45 -16 88 -26 80 -17 136 -53 136 -87 0 -8 20 -55 45 -106 25 -50 45 -96 45
-102 0 -9 -50 -34 -55 -28 -1 2 -12 30 -24 62 -12 32 -31 70 -41 84 -11 13
-20 30 -20 36 0 25 -58 68 -100 73 -41 6 -43 5 -109 -63 -37 -38 -83 -93 -103
-122 -33 -49 -36 -51 -51 -34 -16 17 -13 23 46 98 66 83 130 144 149 144 8 0
9 3 2 10 -6 6 -42 13 -80 16 -63 5 -80 1 -209 -44 -128 -44 -152 -57 -284
-147 l-143 -99 58 -52 c33 -29 86 -77 119 -106 33 -29 75 -69 93 -90 33 -37
33 -37 16 -70 -22 -43 -19 -41 -42 -27 -16 10 -26 10 -51 -1 -17 -7 -31 -18
-31 -25 0 -7 -17 -27 -37 -44 -43 -36 -47 -39 -88 -81 -16 -17 -38 -33 -47
-36 -10 -3 -18 -14 -18 -24 0 -32 -12 -50 -33 -50 -20 0 -87 45 -87 58 0 4 14
16 31 26 18 10 41 28 53 40 11 11 39 35 62 51 22 17 67 59 100 94 l58 64 -60
56 c-33 31 -86 78 -118 106 l-58 49 -25 -29 c-65 -79 -113 -144 -113 -153 0
-5 12 -13 27 -17 15 -3 60 -39 100 -80 l73 -73 -35 -22 -35 -22 -27 22 c-16
12 -28 29 -28 38 0 20 -80 82 -106 82 -28 0 -83 -117 -103 -220 -14 -76 -22
-133 -41 -330 -3 -30 -13 -74 -22 -98 -9 -23 -14 -45 -11 -47 10 -10 33 6 53
35 11 17 25 30 32 30 6 0 25 11 41 25 l29 24 21 -29 21 -28 -31 -34 c-60 -64
-111 -133 -134 -183 -20 -42 -24 -66 -24 -152 l0 -101 64 -135 c65 -138 89
-167 138 -167 55 0 255 90 323 145 22 18 78 54 124 79 47 26 115 71 153 102
63 51 68 58 68 95 0 22 -7 56 -15 75 -15 38 -204 240 -219 236 -15 -5 -45 29
-39 44 3 9 -2 14 -16 14 -19 0 -142 82 -149 99 -4 11 74 61 93 61 9 0 54 -38
100 -85 61 -60 104 -93 149 -115 40 -19 80 -47 104 -75 22 -25 43 -45 47 -45
16 0 -4 274 -25 355 -12 44 -23 92 -25 107 -2 15 -28 63 -58 106 l-55 79 21
36 c11 20 24 37 27 37 8 0 105 -131 135 -181 11 -18 25 -41 30 -50 9 -15 15
-9 39 36 29 57 138 178 196 220 19 13 64 45 100 70 36 24 75 52 88 61 27 20
37 12 47 -32 6 -31 4 -33 -52 -65 -32 -17 -78 -48 -103 -68 -66 -52 -180 -170
-180 -185 0 -7 -13 -43 -30 -79 -23 -50 -30 -81 -30 -126 0 -98 6 -101 61 -26
56 78 65 112 49 190 l-12 58 36 35 35 36 11 -30 c6 -16 14 -50 17 -76 l6 -48
61 53 c34 29 88 73 121 97 33 24 61 44 63 45 11 8 -35 226 -62 287 -16 37 -16
38 9 54 14 9 28 15 30 12 8 -8 51 -139 76 -231 18 -67 28 -87 39 -84 8 3 21 6
29 8 16 4 38 -74 23 -79 -5 -1 -17 -9 -27 -16 -17 -12 -17 -18 10 -111 32
-112 45 -216 41 -316 -1 -38 0 -69 3 -69 18 1 173 50 197 63 16 8 40 26 52 40
23 25 24 28 17 163 -4 80 -12 146 -20 158 -6 12 -18 47 -25 79 -15 64 -9 77
37 77 25 0 26 -3 49 -130 9 -52 20 -99 25 -104 5 -6 9 -31 9 -57 0 -26 5 -51
10 -54 21 -13 9 -66 -31 -137 -23 -40 -51 -83 -62 -95 -25 -28 -95 -55 -202
-78 -44 -10 -98 -30 -120 -44 -58 -37 -166 -128 -194 -164 l-25 -30 35 6 c19
3 104 15 189 28 85 12 236 40 335 62 160 35 220 47 317 61 17 3 32 -2 44 -15
24 -26 14 -32 -90 -54 -44 -9 -149 -32 -233 -51 -83 -19 -186 -41 -230 -49
-43 -8 -94 -21 -113 -29 -36 -15 -267 -71 -331 -81 -50 -7 -193 -95 -359 -218
-142 -106 -159 -124 -345 -358 -27 -34 -65 -79 -82 -99 -60 -68 -78 -122 -78
-240 0 -97 2 -110 32 -172 53 -112 151 -164 328 -176 l99 -7 8 -35 c5 -19 13
-91 18 -160 5 -69 12 -136 16 -149 7 -22 5 -23 -22 -17 -16 4 -86 10 -156 13
l-128 5 0 -141 0 -141 65 0 65 0 0 80 0 80 28 0 c42 0 126 -27 156 -51 15 -12
26 -30 26 -44 0 -13 7 -50 15 -82 8 -31 15 -81 15 -109 0 -46 -4 -57 -33 -87
-34 -37 -113 -67 -174 -67 l-33 0 0 75 0 75 -65 0 -65 0 0 -141 0 -142 128 5
c97 4 140 10 182 27 30 11 56 21 58 21 2 0 0 -25 -3 -55 -5 -39 -4 -55 4 -55
8 0 10 -24 5 -87 -6 -94 8 -159 47 -215 11 -14 19 -35 19 -46 0 -22 118 -121
184 -154 23 -11 59 -35 81 -53 22 -17 51 -37 63 -44 39 -21 102 -82 102 -100
0 -19 95 -82 168 -110 30 -12 86 -42 125 -68 83 -54 184 -99 246 -109 66 -11
259 51 321 103 18 14 34 19 53 16 23 -5 27 -10 27 -38 0 -27 -6 -35 -34 -49
-19 -9 -39 -16 -45 -16 -6 0 -36 -12 -68 -26 -85 -39 -172 -64 -220 -64 -23 0
-71 11 -107 23 -44 16 -69 21 -80 15 -13 -7 -37 3 -96 41 -44 28 -80 49 -80
46 0 -13 35 -75 42 -75 5 0 44 -33 88 -74 52 -49 110 -91 169 -123 91 -48 100
-58 81 -94 -10 -18 -12 -18 -61 6 -81 42 -161 95 -208 139 l-43 41 7 -80 c3
-44 12 -107 20 -140 18 -85 9 -218 -16 -234 -14 -8 -25 -8 -39 -1 -17 9 -18
22 -18 162 1 159 -21 336 -48 389 -22 44 -63 88 -138 147 -39 31 -74 61 -78
66 -4 6 -9 8 -12 5 -3 -3 7 -34 22 -69 21 -53 27 -84 30 -167 2 -57 1 -103 -2
-103 -4 0 -18 7 -31 16 -22 14 -25 23 -25 78 0 116 -69 267 -127 279 -97 21
-86 25 -106 -40 -28 -97 -22 -118 58 -179 28 -20 79 -64 115 -96 36 -32 121
-92 190 -131 l125 -73 3 -42 c2 -23 1 -42 -2 -42 -3 0 -47 24 -98 53 -51 30
-141 80 -201 112 -104 57 -198 138 -249 215 l-17 25 -18 -25 c-9 -14 -32 -41
-50 -60 -37 -40 -52 -37 -90 19 l-22 33 50 65 c27 35 47 68 44 72 -2 5 7 19
20 31 53 50 13 111 -104 159 -41 17 -77 28 -80 25 -14 -14 -12 -166 2 -216 9
-29 18 -69 21 -90 2 -20 25 -68 51 -107 53 -80 168 -175 264 -219 31 -13 84
-45 119 -69 35 -25 66 -43 68 -40 3 3 8 30 11 61 3 31 10 59 14 62 16 10 50
-21 45 -41 -3 -11 -8 -43 -11 -70 l-7 -51 95 -52 c52 -29 109 -66 125 -82 36
-34 116 -60 184 -60 l48 0 0 -40 c0 -46 2 -45 -113 -31 -38 5 -76 16 -85 23
-9 8 -38 22 -63 32 -26 9 -79 39 -118 66 -40 28 -76 50 -81 50 -12 0 -21 -76
-14 -122 6 -42 37 -88 58 -88 6 0 46 -17 88 -37 69 -33 78 -41 75 -63 -3 -38
-29 -36 -130 11 -105 48 -147 85 -147 129 0 28 -3 30 -34 30 -23 0 -39 7 -49
20 -13 19 -112 97 -171 134 l-30 19 -27 -33 c-24 -29 -30 -31 -44 -20 -14 12
-11 18 27 57 23 23 47 43 53 43 11 0 118 -78 198 -144 56 -46 77 -43 78 11 0
21 2 48 5 60 3 15 -5 28 -25 42 -39 28 -45 27 -60 -14 -7 -19 -18 -35 -24 -35
-19 0 -87 49 -87 63 0 25 -103 149 -150 180 -27 18 -51 39 -53 48 -2 9 -26 31
-53 49 -27 18 -56 42 -64 54 -8 11 -27 34 -42 49 l-27 29 -48 -40 c-64 -53
-84 -62 -131 -60 -21 0 -44 -2 -50 -6 -23 -14 -10 10 27 51 29 32 46 43 68 43
57 0 68 18 72 126 l3 98 -32 -27 c-17 -15 -40 -27 -50 -27 -9 0 -23 -7 -30
-15 -6 -8 -22 -17 -33 -21 -12 -3 -34 -17 -48 -31 -23 -21 -29 -23 -53 -12
-34 16 -29 29 21 54 39 19 103 74 169 143 47 50 85 202 50 202 -8 0 -12 8 -9
22 8 45 -90 167 -152 189 -38 14 -44 26 -19 36 13 5 12 9 -8 30 -13 14 -35 34
-50 44 l-27 19 -88 -40 c-48 -23 -117 -49 -153 -60 -36 -10 -85 -27 -110 -39
-25 -11 -55 -21 -66 -21 -12 0 -32 -9 -45 -19 -21 -16 -24 -29 -25 -85 -1 -36
2 -63 7 -60 5 3 9 4 10 2 0 -2 3 -23 6 -48 5 -46 26 -80 48 -80 13 0 158 -115
163 -128 1 -5 -8 -18 -21 -30 l-23 -22 -59 30 c-33 17 -72 42 -87 57 -15 15
-31 24 -34 20 -16 -16 2 -180 26 -236 6 -13 27 -43 48 -67 33 -39 41 -43 82
-43 28 0 72 11 114 29 53 23 73 27 88 19 18 -10 15 -13 -29 -45 -26 -19 -53
-34 -59 -34 -6 0 -24 -10 -39 -22 -16 -12 -55 -26 -95 -33 -59 -10 -69 -9 -79
4 -8 10 -9 11 -5 2 5 -9 -5 -6 -24 8 -18 12 -39 36 -47 52 -17 32 -30 37 -39
14 -9 -23 -25 -18 -75 23 -25 20 -50 37 -56 37 -23 0 -14 38 22 97 30 49 38
71 37 107 -1 56 -30 114 -79 161 -21 19 -45 48 -55 63 l-18 28 -46 -74 c-42
-67 -46 -80 -46 -135 0 -54 4 -65 35 -104 19 -24 48 -63 64 -88 48 -73 165
-178 244 -219 124 -65 227 -122 231 -130 3 -4 -6 -20 -19 -37 l-23 -29 -104
50 c-56 28 -107 55 -113 62 -5 6 -52 35 -104 64 -70 40 -106 68 -145 114 l-52
62 -40 -41 c-22 -23 -80 -72 -129 -111 -50 -38 -96 -78 -103 -87 -22 -31 -40
-22 -33 15 5 22 16 36 36 46 43 19 100 77 148 146 43 63 45 76 29 175 l-9 55
-12 -32 c-7 -18 -17 -33 -21 -33 -5 0 -20 -23 -34 -52 -19 -39 -26 -67 -26
-113 0 -51 -4 -65 -23 -83 -13 -12 -27 -19 -30 -15 -4 3 -7 43 -7 87 -1 77 -2
80 -15 54 -25 -45 -65 -227 -71 -325 -7 -87 -8 -93 -40 -124 -22 -22 -34 -28
-35 -18 -4 79 0 193 8 231 6 27 8 48 5 48 -8 0 -258 -120 -360 -172 -51 -26
-94 -48 -96 -48 -2 0 -6 11 -8 25 -5 23 9 31 228 140 128 64 237 122 242 128
9 11 21 107 14 107 -15 0 -123 -64 -142 -85 -41 -44 -79 -58 -150 -57 -81 1
-113 13 -220 84 -96 63 -211 123 -285 148 -47 16 -50 19 -53 53 -2 22 1 37 8
37 5 0 75 -29 154 -64 141 -64 261 -130 302 -167 24 -23 118 -42 159 -33 16 4
50 24 74 46 25 21 75 55 111 74 36 19 88 52 115 74 28 21 62 48 77 60 31 24
98 151 98 187 0 35 23 75 88 151 32 37 74 96 92 131 39 72 117 144 208 191 32
16 96 66 145 113 78 74 91 93 117 158 15 40 39 117 52 171 l23 98 63 0 62 0 0
215 0 215 -34 0 c-33 0 -34 2 -41 48 -16 106 -83 202 -206 292 -38 29 -68 58
-66 64 2 6 29 82 58 168 30 87 56 158 59 158 3 0 34 -85 70 -188 l66 -187 68
-3 c62 -3 68 -1 62 15 -43 120 -261 673 -266 673 -4 0 -54 -121 -111 -270 -57
-148 -107 -270 -111 -270 -3 0 -12 15 -19 33 -9 22 -14 104 -15 271 l-2 239
-31 41 c-17 22 -60 88 -96 144 -36 57 -97 139 -137 182 -74 82 -72 81 -248
149 -31 11 -64 21 -75 21 -11 0 -52 9 -90 20 -75 21 -145 26 -145 10 0 -15
-84 -12 -165 5 -210 44 -386 109 -459 169 -23 18 -51 38 -63 44 -50 27 -54 39
-31 87 22 44 35 53 54 36 33 -31 186 -101 234 -107 30 -4 75 -17 100 -29 75
-37 195 -63 384 -84 99 -11 181 -19 183 -17 1 1 -29 51 -68 110 -78 117 -74
114 -261 195 -27 11 -48 26 -48 33 0 7 -14 40 -30 72 -43 85 -40 136 10 136
25 0 28 -4 34 -48 6 -50 36 -92 89 -127 22 -14 30 -15 42 -5 16 13 43 1 90
-40 11 -9 28 -20 37 -23 16 -6 17 8 17 165 1 175 7 242 21 233 8 -5 23 50 36
135 4 22 9 40 12 40 13 0 52 -45 52 -59 0 -23 -32 -105 -44 -113 -7 -5 -11
-82 -11 -215 0 -211 7 -263 49 -353 18 -39 136 -153 196 -188 144 -86 201
-125 236 -165 21 -23 42 -41 47 -39 5 1 15 -3 23 -9 21 -17 18 45 -5 119 -35
113 -253 405 -426 571 l-98 93 2 56 c1 30 4 59 7 64 10 16 128 -69 238 -172
l69 -65 -6 60 c-7 64 3 149 33 313 29 149 67 254 155 422 l39 75 9 -41 c8 -37
5 -54 -31 -145 -63 -164 -92 -265 -109 -388 -14 -98 -15 -133 -5 -244 l12
-130 72 -73 c40 -41 76 -74 80 -74 4 0 8 25 8 55 0 62 -38 149 -113 260 -37
54 -41 66 -40 115 2 48 21 127 22 92 1 -17 27 -50 92 -119 45 -48 52 -51 74
-41 28 13 49 60 64 146 6 34 16 90 22 125 25 139 108 296 229 429 l60 67 -102
72 c-57 40 -105 74 -107 76 -6 4 40 53 50 53 4 0 55 -29 112 -65 58 -36 110
-65 116 -65 6 0 37 21 69 47 72 59 171 123 189 123 8 0 43 16 78 35 98 55 406
108 441 76z m-1640 -137 c90 -56 118 -88 138 -158 23 -77 21 -133 -6 -173 -27
-38 -36 -40 -88 -13 -22 11 -47 20 -56 20 -13 0 -15 6 -10 32 10 48 19 52 71
29 57 -25 55 -25 55 -5 0 28 -50 121 -90 166 -55 63 -88 75 -144 54 -24 -9
-52 -26 -61 -36 -18 -20 -41 -25 -69 -14 -39 15 107 144 162 144 13 0 57 -21
98 -46z m2056 -27 c39 -37 60 -67 73 -102 9 -27 28 -75 41 -106 13 -31 24 -59
24 -62 0 -3 -14 -10 -30 -16 -29 -9 -32 -8 -41 17 -6 15 -18 45 -29 67 -10 22
-26 59 -35 81 -9 23 -37 61 -61 85 -37 37 -45 40 -59 29 -14 -12 -18 -11 -26
1 -12 20 -11 30 6 49 26 29 76 14 137 -43z m-721 -56 c74 -79 127 -143 155
-186 10 -16 35 -46 54 -65 35 -36 120 -185 120 -211 0 -8 -7 -25 -16 -38 l-16
-23 -19 41 c-10 23 -42 76 -71 119 -28 42 -69 102 -89 132 -21 30 -85 102
-143 159 -58 57 -106 106 -106 109 0 9 35 31 51 32 9 0 45 -31 80 -69z m-1629
-31 c26 -5 78 -24 115 -42 64 -31 68 -35 65 -63 -2 -16 -7 -33 -11 -38 -4 -4
-33 4 -65 18 -31 14 -64 25 -73 25 -8 0 -31 9 -50 21 -29 18 -43 20 -91 14
-31 -4 -73 -14 -92 -22 -39 -16 -90 -60 -90 -79 0 -6 -7 -17 -16 -25 -26 -22
-51 -81 -68 -163 -9 -44 -18 -81 -20 -83 -2 -2 -16 1 -31 7 -26 10 -27 13 -21
53 6 42 91 228 128 280 11 15 35 39 55 54 40 31 156 65 193 57 14 -3 46 -9 72
-14z m298 -15 c0 -9 -4 -23 -9 -33 -17 -32 -101 -319 -101 -345 0 -32 -3 -32
-41 -10 -16 10 -27 23 -24 31 2 7 11 39 20 71 18 69 57 176 90 249 14 29 25
57 25 63 0 6 7 6 20 -1 11 -6 20 -17 20 -25z m1834 9 c9 -24 7 -55 -8 -114 -8
-30 -13 -56 -12 -58 7 -6 96 40 91 48 -6 9 50 31 59 23 3 -3 23 2 45 10 36 15
40 15 46 -1 8 -21 -20 -42 -56 -42 -14 0 -37 -8 -50 -18 -68 -51 -119 -73
-167 -70 l-47 3 3 40 c3 40 69 195 83 195 4 0 10 -7 13 -16z m595 -40 c82 -24
135 -95 188 -248 13 -39 27 -72 32 -75 11 -8 23 -61 13 -61 -8 0 3 -146 17
-218 8 -40 7 -44 -16 -53 -13 -5 -26 -9 -27 -9 -2 0 -18 60 -36 133 -18 72
-36 137 -41 142 -4 6 -10 31 -13 55 -3 25 -8 62 -11 83 -12 93 -78 175 -168
208 -55 21 -66 22 -126 11 -50 -8 -67 -8 -73 1 -15 23 -1 32 63 44 70 13 124
9 198 -13z m-2719 -78 c0 -2 -9 -48 -20 -103 -11 -54 -17 -112 -14 -130 4 -18
0 -45 -9 -65 -9 -18 -18 -55 -22 -83 -12 -103 -13 -105 -42 -92 -24 10 -25 14
-19 67 3 30 10 82 16 115 6 33 13 92 15 130 5 70 7 86 26 158 l10 37 29 -15
c17 -9 30 -17 30 -19z m1690 -51 c0 -7 -25 -65 -56 -129 -30 -65 -53 -120 -50
-123 3 -3 0 -15 -6 -27 -18 -36 -120 -186 -130 -192 -6 -4 -19 3 -31 15 l-21
21 67 97 c36 54 76 125 87 158 11 33 29 71 39 85 10 15 31 50 45 79 23 43 30
50 42 41 7 -7 14 -18 14 -25z m835 -55 c89 -14 127 -34 153 -82 12 -23 21 -43
19 -45 -2 -1 -17 -5 -33 -8 -25 -5 -32 -1 -54 31 -14 21 -31 44 -38 51 -16 15
-72 18 -72 3 0 -5 -21 -10 -46 -10 -27 0 -51 -6 -60 -15 -22 -22 -31 -19 -42
15 -10 28 -9 30 16 36 15 3 41 11 57 19 37 17 29 17 100 5z m-10 -122 c22
-151 38 -199 85 -261 26 -34 58 -68 72 -76 16 -8 28 -25 32 -43 10 -48 7 -58
-14 -58 -11 0 -20 4 -20 10 0 12 -90 52 -110 48 -19 -5 -60 65 -60 103 0 15
-9 51 -20 79 -11 28 -20 70 -20 93 -1 23 -5 62 -10 87 -10 54 -7 60 30 60 26
0 29 -4 35 -42z m-2647 -5 c-2 -23 -9 -29 -38 -33 -32 -5 -36 -9 -48 -50 -7
-25 -21 -70 -30 -100 -10 -31 -17 -88 -17 -132 0 -42 -3 -79 -7 -83 -3 -4 -16
-4 -27 0 -19 6 -21 14 -20 73 1 88 42 278 67 311 18 25 50 37 100 40 20 1 23
-3 20 -26z m189 -35 c63 -24 62 -23 187 -120 47 -37 104 -77 127 -88 l41 -21
-7 -57 c-4 -31 -9 -59 -11 -61 -6 -7 -49 18 -81 48 -127 113 -229 190 -280
210 -45 18 -53 32 -46 74 3 20 7 37 8 37 2 0 29 -10 62 -22z m3096 3 c132 -34
174 -60 267 -166 47 -52 100 -119 118 -148 38 -58 123 -229 117 -235 -2 -2
-16 -1 -32 2 -23 5 -33 18 -53 67 -52 124 -202 337 -239 338 -7 1 -30 16 -51
35 -42 38 -87 50 -217 62 -58 4 -83 11 -83 19 0 8 -3 20 -6 29 -9 23 82 21
179 -3z m-338 -23 c4 -16 5 -31 3 -34 -2 -2 -38 -10 -79 -18 -41 -8 -94 -22
-118 -30 -52 -19 -64 -12 -59 35 2 25 9 35 23 37 11 2 34 10 50 17 37 17 54
20 122 21 50 2 52 0 58 -28z m-3235 -57 c84 -32 82 -30 74 -100 -6 -52 -9 -61
-23 -55 -9 3 -29 10 -46 14 -16 4 -52 18 -80 31 -45 21 -66 24 -200 27 l-150
3 -57 -36 c-66 -41 -124 -122 -188 -258 -33 -71 -45 -87 -71 -96 -28 -10 -31
-9 -26 7 15 45 59 156 76 190 38 74 240 280 261 267 6 -4 17 -1 26 5 42 35
315 36 404 1z m1420 -138 c0 -6 27 -33 59 -58 33 -26 62 -53 65 -61 3 -8 13
-14 23 -14 10 0 29 -9 42 -19 l24 -19 -39 -25 c-61 -39 -82 -42 -95 -15 -6 13
-33 41 -60 63 -94 75 -104 85 -91 85 9 0 7 9 -7 29 -23 32 -27 81 -10 112 10
19 13 18 49 -23 22 -24 39 -48 40 -55z m-1109 -19 l99 -56 0 -57 c0 -32 -3
-60 -6 -64 -9 -9 -82 30 -131 69 -23 19 -52 34 -65 34 -22 0 -23 3 -20 65 2
36 8 65 14 65 5 0 55 -25 109 -56z m1474 6 c28 -22 63 -53 78 -70 27 -30 57
-40 57 -18 0 6 7 3 15 -8 25 -33 17 -220 -11 -253 -2 -2 -12 4 -23 13 -15 13
-18 26 -14 56 9 64 -24 115 -127 199 -49 40 -90 75 -90 78 0 8 44 42 54 43 5
0 32 -18 61 -40z m-1821 -20 c23 -8 25 -12 16 -35 -6 -15 -10 -46 -10 -71 0
-100 -60 -268 -140 -393 -53 -83 -64 -91 -92 -68 -15 11 -8 30 69 184 77 156
87 182 104 280 10 59 19 109 19 111 0 4 8 2 34 -8z m-232 -70 c20 -6 62 -11
95 -13 55 -2 58 -3 55 -26 -1 -14 -4 -27 -7 -29 -2 -2 -33 1 -68 7 -35 6 -98
11 -139 11 -74 0 -77 -1 -104 -32 -15 -18 -33 -47 -40 -65 -18 -42 -26 -174
-12 -191 9 -10 3 -22 -25 -50 -51 -51 -60 -38 -58 85 1 96 2 100 48 193 36 71
53 95 68 96 11 1 27 4 35 7 8 4 35 8 60 10 25 2 47 4 50 5 3 1 21 -3 42 -8z
m2068 -56 c0 -12 -47 -44 -58 -39 -18 7 -42 -12 -36 -28 5 -15 -60 -58 -93
-62 -26 -3 -38 -11 -38 -27 0 -16 -72 -51 -90 -44 -8 3 -15 17 -15 30 0 27 34
58 55 50 7 -3 20 4 28 16 8 11 34 34 58 50 24 16 62 47 83 69 l39 40 33 -26
c19 -14 34 -27 34 -29z m1910 27 c78 -29 117 -66 145 -136 21 -51 22 -61 9
-63 -8 -2 -37 19 -63 46 -57 60 -106 86 -198 107 -67 15 -244 20 -310 9 -30
-6 -33 -4 -33 19 0 29 17 38 62 31 18 -3 53 0 78 5 75 17 247 7 310 -18z
m-3461 -10 c21 -13 3 -32 -59 -64 -45 -24 -56 -25 -120 -18 -38 4 -72 10 -75
13 -3 3 -3 18 1 33 6 23 10 26 33 21 14 -4 55 -9 91 -12 58 -6 67 -4 84 15 21
24 25 24 45 12z m1131 -21 c0 -5 -4 -10 -10 -10 -5 0 -10 5 -10 10 0 6 5 10
10 10 6 0 10 -4 10 -10z m63 -28 c11 -12 13 -22 7 -32 -33 -52 13 -195 62
-195 16 -1 39 -15 59 -36 19 -19 47 -44 63 -55 l29 -21 -22 -22 -21 -21 -59
30 c-47 23 -71 45 -115 103 -30 40 -54 79 -53 87 1 8 -3 32 -7 52 -9 42 11
128 30 128 6 0 18 -8 27 -18z m1988 -15 c4 -5 12 -37 19 -69 14 -74 110 -277
154 -326 18 -20 42 -54 55 -74 12 -20 37 -50 56 -67 19 -17 35 -34 35 -39 0
-14 73 -78 130 -114 30 -19 64 -45 74 -57 11 -12 39 -30 63 -41 24 -10 43 -25
43 -33 0 -14 25 -27 60 -32 20 -3 201 -135 197 -143 -2 -4 -7 -15 -10 -25 -7
-18 -8 -18 -34 1 -37 26 -199 118 -293 167 -169 86 -237 149 -354 326 -39 57
-89 127 -113 155 -57 69 -116 181 -147 282 -14 46 -26 87 -26 92 0 20 78 18
91 -3z m-3731 -106 c0 -44 -25 -93 -80 -157 -27 -33 -59 -78 -70 -102 -12 -26
-31 -47 -46 -52 -16 -7 -24 -16 -21 -24 4 -9 -9 -24 -32 -39 -38 -25 -136 -77
-146 -77 -3 0 -5 20 -5 44 0 43 2 46 56 82 31 21 76 56 99 78 24 23 66 63 94
89 54 51 58 73 10 63 -26 -5 -29 -3 -29 20 0 45 17 62 75 75 31 7 58 16 61 21
12 20 34 7 34 -21z m3995 3 c229 -66 268 -75 275 -64 3 5 26 8 50 6 49 -3 135
-43 190 -87 19 -16 44 -29 55 -29 31 0 106 -51 142 -96 62 -79 78 -121 82
-223 l3 -94 -33 21 c-24 15 -33 28 -31 42 2 11 -4 30 -12 42 -9 12 -16 32 -16
44 0 27 -44 111 -76 145 -14 14 -59 41 -101 59 -43 19 -100 49 -127 68 -38 25
-58 32 -81 29 -16 -2 -41 0 -55 5 -13 5 -60 13 -105 19 -44 5 -95 11 -112 14
-40 7 -41 -4 -8 -43 27 -32 32 -57 13 -68 -14 -9 -90 75 -118 132 -11 22 -20
55 -20 73 0 28 3 32 18 26 9 -4 40 -13 67 -21z m-4295 -83 c0 -37 -2 -39 -37
-47 -21 -4 -52 -7 -70 -5 -23 2 -46 -7 -77 -28 -25 -17 -87 -51 -138 -74 -90
-42 -94 -46 -130 -108 -21 -35 -38 -73 -38 -84 0 -11 -7 -33 -15 -49 -8 -15
-15 -38 -15 -50 0 -13 -11 -28 -29 -39 -28 -16 -29 -16 -35 6 -18 68 4 168 54
246 43 67 130 141 165 141 12 0 34 9 48 20 65 51 153 92 206 96 30 2 57 6 59
9 3 3 16 5 29 5 20 0 23 -5 23 -39z m4455 -98 c-20 -49 -50 -89 -64 -85 -6 1
-30 -11 -53 -28 -48 -35 -68 -37 -92 -11 -20 22 -19 22 52 46 53 17 102 64
102 98 0 13 9 17 35 17 l35 0 -15 -37z m-2057 -36 c-40 -33 -114 -77 -129 -77
-8 0 -31 -15 -52 -34 -21 -19 -52 -40 -68 -46 -16 -7 -29 -17 -29 -22 0 -16
30 -68 40 -68 5 0 21 -19 34 -43 14 -24 37 -54 50 -66 l25 -23 66 68 c58 61
65 73 63 104 -2 27 -12 41 -48 68 -25 19 -46 37 -48 41 -1 4 9 13 24 20 23 10
32 8 68 -13 44 -26 79 -61 89 -87 9 -28 -44 -104 -142 -204 -96 -97 -131 -116
-131 -70 0 14 -8 29 -19 34 -23 13 -107 129 -127 176 -22 53 -17 73 28 115 30
27 54 40 85 45 27 4 57 17 76 34 18 16 42 31 55 35 12 4 20 11 17 16 -3 5 9
20 27 34 l33 25 20 -20 20 -20 -27 -22z m-2533 -99 c3 -68 13 -168 21 -223 14
-100 14 -100 -8 -117 -13 -9 -25 -15 -27 -12 -4 3 -14 66 -41 254 -5 36 -9 97
-10 137 0 73 2 77 46 82 8 1 14 -39 19 -121z m4832 112 c14 0 15 -14 9 -112
-4 -62 -14 -151 -22 -198 -8 -47 -18 -102 -22 -124 l-7 -38 -24 19 -24 19 17
115 c9 63 16 135 16 160 0 25 3 74 6 108 6 48 10 61 21 57 8 -4 22 -6 30 -6z
m-115 -143 c21 -7 33 -48 24 -82 l-7 -26 -78 41 c-43 22 -91 54 -107 71 l-29
30 35 29 34 28 56 -42 c30 -24 63 -45 72 -49z m-4339 -95 c15 -17 13 -22 -36
-87 -67 -88 -141 -148 -259 -209 -127 -66 -245 -133 -295 -167 -23 -16 -44
-29 -46 -29 -3 0 -8 12 -12 27 -4 18 -2 29 9 35 8 4 51 35 96 69 45 33 84 58
87 55 8 -7 63 23 63 34 0 5 21 21 48 34 26 13 58 36 72 51 14 15 41 35 60 45
19 10 66 50 103 89 37 39 74 71 81 71 7 0 20 -8 29 -18z m-460 -42 c7 -26 3
-28 -155 -104 -113 -54 -144 -74 -178 -113 -22 -27 -46 -57 -53 -69 -7 -11
-29 -46 -50 -78 -47 -69 -67 -125 -67 -181 0 -37 -5 -46 -35 -69 -30 -24 -36
-25 -41 -11 -14 36 6 130 43 205 21 41 39 78 41 81 1 3 -11 4 -28 1 -16 -2
-30 0 -30 6 0 15 135 139 172 158 17 9 39 24 47 34 9 10 68 41 131 69 63 28
131 59 150 70 45 24 47 25 53 1z m5012 -10 c28 -12 93 -42 145 -66 52 -23 110
-56 128 -73 19 -17 39 -31 46 -31 7 0 48 -35 92 -77 l79 -77 -32 -4 -32 -3 37
-72 c31 -61 37 -84 40 -150 l4 -79 -35 23 c-32 21 -35 28 -39 84 -6 68 -27
115 -99 220 -78 115 -128 155 -276 225 -73 35 -133 67 -133 71 0 15 13 40 19
36 3 -1 29 -14 56 -27z m-5270 -286 c10 -72 54 -207 74 -224 34 -30 31 -46
-15 -84 -25 -21 -44 -31 -45 -24 -2 32 -7 57 -22 108 -9 30 -23 91 -32 135 -9
44 -20 82 -25 83 -19 7 -9 43 18 67 25 22 28 22 34 6 3 -10 9 -40 13 -67z
m5535 18 c0 -7 -6 -20 -14 -27 -8 -8 -19 -47 -26 -87 -6 -40 -20 -100 -31
-132 -10 -33 -19 -73 -19 -89 l0 -28 -45 37 c-25 20 -45 40 -45 45 0 4 9 16
19 26 25 23 65 136 81 228 18 101 18 100 51 69 16 -15 29 -34 29 -42z m-5155
-59 c-4 -16 -11 -54 -15 -86 -14 -97 -69 -171 -163 -221 -74 -39 -166 -118
-252 -217 l-79 -90 -14 26 c-12 24 -11 30 14 68 15 23 52 64 81 92 30 27 79
74 109 103 34 34 54 48 54 38 0 -28 17 -17 74 47 52 57 126 182 126 213 0 14
46 54 62 54 6 0 7 -12 3 -27z m4735 7 c16 -11 30 -33 34 -51 9 -48 62 -134
123 -200 56 -60 73 -70 73 -44 0 8 26 -11 58 -43 32 -31 77 -73 100 -94 22
-20 56 -58 75 -84 30 -41 33 -51 25 -76 -6 -15 -13 -28 -16 -28 -4 0 -20 18
-36 40 -70 94 -269 270 -306 270 -16 0 -97 78 -121 116 -11 19 -25 60 -30 91
-5 32 -12 73 -15 91 -7 37 -2 39 36 12z m-5155 -177 c6 -24 -1 -34 -62 -87
-126 -111 -225 -211 -239 -241 -8 -16 -30 -55 -49 -85 -111 -173 -106 -308 21
-670 31 -85 63 -170 71 -187 15 -31 15 -34 -2 -53 -34 -38 -41 -31 -106 122
-16 38 -50 139 -75 225 -52 183 -67 319 -43 414 7 30 12 59 11 64 -3 19 124
250 144 260 11 6 57 48 102 94 73 74 193 171 213 171 4 0 10 -12 14 -27z
m5624 -19 c64 -47 211 -189 211 -205 0 -5 9 -9 19 -9 22 0 40 -26 104 -155 94
-187 98 -301 23 -579 -31 -112 -63 -205 -98 -278 l-52 -109 -25 25 c-24 25
-24 26 -8 63 26 61 103 280 133 378 19 62 28 121 32 192 5 123 -14 193 -83
298 -25 37 -45 73 -45 79 0 11 -213 216 -273 262 -27 22 -32 39 -21 68 9 23
13 21 83 -30z m-5423 -349 c13 -25 15 -53 12 -145 -6 -150 -36 -245 -118 -369
-64 -98 -101 -129 -189 -157 -52 -17 -54 -16 -67 1 -17 23 -39 101 -55 189
-16 95 -2 286 21 286 19 0 39 -83 44 -181 4 -89 20 -186 41 -247 11 -30 145
66 145 104 0 7 14 33 31 57 65 92 82 288 40 452 l-23 90 43 38 44 39 8 -63 c4
-35 15 -78 23 -94z m5236 98 c17 -18 17 -24 -7 -117 -29 -114 -33 -231 -10
-296 8 -23 15 -52 15 -64 0 -12 16 -48 35 -80 19 -32 35 -64 35 -71 0 -17 51
-60 100 -85 33 -17 39 -18 44 -4 18 48 36 158 42 256 5 77 12 124 24 148 l18
35 11 -40 c20 -71 24 -161 12 -245 -16 -104 -47 -206 -65 -213 -18 -7 -79 9
-127 34 -69 35 -163 169 -204 294 -42 125 -52 308 -19 360 6 11 15 48 19 82
l7 63 26 -19 c15 -10 35 -28 44 -38z m-5598 -60 c21 -90 60 -190 84 -217 40
-45 106 -152 104 -170 0 -10 6 -32 14 -48 14 -27 14 -32 -1 -54 -8 -13 -18
-24 -20 -24 -3 0 -14 19 -26 43 -12 23 -34 56 -48 72 -14 17 -39 56 -55 88
-16 31 -33 57 -37 57 -5 0 -15 21 -23 48 -8 26 -28 81 -45 124 -17 42 -31 83
-31 91 0 21 51 80 60 70 4 -4 15 -40 24 -80z m5920 48 l28 -30 -20 -58 c-55
-155 -72 -196 -85 -212 -8 -9 -26 -39 -40 -67 -14 -28 -37 -64 -50 -80 -13
-16 -34 -49 -47 -73 l-22 -44 -21 21 c-20 21 -20 23 -4 57 9 19 14 41 11 49
-5 12 87 161 109 177 14 10 64 143 82 218 10 39 21 71 24 71 4 0 20 -13 35
-29z m-2785 -165 c18 -24 44 -50 58 -57 14 -7 39 -34 56 -59 17 -25 50 -67 74
-94 58 -65 56 -76 -10 -76 -156 0 -247 80 -247 216 0 45 17 114 29 114 4 0 22
-20 40 -44z m-2756 -686 l51 -145 0 -260 c1 -143 -3 -378 -8 -523 -8 -221 -11
-262 -23 -257 -8 3 -22 5 -30 5 -14 0 -15 23 -10 213 12 388 15 657 7 652 -5
-3 -11 30 -14 72 -9 104 -37 223 -78 326 l-34 84 25 33 25 32 19 -43 c10 -24
41 -109 70 -189z m5217 195 c22 -24 23 -28 11 -58 -67 -163 -100 -298 -101
-412 0 -31 -3 -45 -9 -37 -15 25 -18 -20 -9 -134 5 -60 7 -167 6 -239 -1 -71
1 -212 6 -312 8 -164 7 -183 -7 -183 -8 0 -22 -2 -30 -5 -11 -5 -15 25 -20
182 -3 103 -11 289 -18 413 -18 325 -9 400 72 631 35 98 66 179 70 179 3 0 16
-11 29 -25z m-5390 -230 c19 -23 8 -296 -15 -358 -16 -44 -19 -47 -33 -33 -13
13 -15 38 -13 142 l2 127 -31 -27 c-17 -14 -38 -26 -46 -26 -7 0 -21 -11 -30
-25 -9 -14 -20 -23 -25 -20 -11 7 -75 -91 -135 -205 l-49 -95 0 -105 c0 -94 3
-111 28 -165 15 -33 46 -78 68 -101 36 -37 40 -45 37 -85 l-3 -44 -73 73 c-52
52 -83 94 -107 143 -33 69 -33 70 -32 207 2 135 2 138 38 212 53 112 106 188
173 252 57 54 87 74 70 46 -5 -7 12 4 36 24 46 36 110 78 121 78 4 0 12 -7 19
-15z m5509 -7 c20 -12 52 -34 72 -50 20 -15 39 -24 43 -21 4 4 36 -22 72 -58
75 -73 162 -212 195 -309 19 -58 21 -78 15 -184 -5 -95 -11 -129 -30 -170 -27
-60 -92 -142 -147 -185 l-38 -31 -7 36 c-6 32 -3 40 34 77 23 23 56 74 74 112
31 66 33 76 32 169 -2 96 -3 100 -50 195 -51 102 -119 206 -134 206 -5 0 -17
10 -25 23 -9 12 -24 22 -34 22 -10 0 -24 7 -31 16 -8 8 -22 20 -33 25 -18 10
-19 8 -13 -58 13 -128 11 -182 -7 -200 -15 -15 -17 -15 -22 3 -4 10 -10 29
-15 40 -17 44 -32 184 -27 262 7 112 13 118 76 80z m-5616 -360 c37 -48 67
-89 67 -93 0 -3 33 -50 73 -103 90 -118 97 -131 97 -177 0 -32 -2 -35 -19 -25
-11 5 -51 47 -88 91 -37 45 -80 93 -95 107 -16 14 -28 29 -28 34 0 4 -31 49
-70 100 -38 51 -66 94 -62 97 5 4 17 21 27 38 11 18 22 29 25 25 4 -4 37 -46
73 -94z m5762 63 c8 -16 19 -31 24 -33 6 -1 -23 -48 -64 -103 -86 -116 -115
-150 -219 -260 l-76 -80 0 46 c0 42 7 55 83 157 45 62 91 125 102 141 48 71
119 161 127 161 4 0 14 -13 23 -29z m-5741 -304 c8 -12 2 -51 -23 -151 -48
-197 -61 -392 -31 -461 5 -11 16 -46 25 -77 10 -31 24 -59 32 -62 8 -4 13 -13
10 -20 -8 -20 44 -89 88 -116 20 -12 57 -30 83 -40 33 -12 50 -26 56 -44 6
-14 7 -28 5 -31 -3 -3 -30 2 -60 11 -147 44 -227 121 -280 270 -27 74 -38 301
-20 397 22 115 86 347 95 344 5 -2 14 -11 20 -20z m5689 -132 c52 -206 57
-237 57 -343 -1 -237 -77 -410 -209 -477 -36 -18 -142 -55 -158 -55 -10 0 -1
61 10 64 122 35 217 111 217 173 0 11 6 23 14 26 13 5 60 140 69 200 10 65
-14 265 -47 397 -32 125 -34 136 -19 153 9 9 20 14 23 10 4 -5 23 -71 43 -148z
m-5292 -122 c56 -60 110 -215 115 -328 1 -38 6 -137 10 -218 l7 -149 -24 4
c-24 3 -24 4 -30 158 -9 216 -35 370 -63 370 -24 0 -86 104 -86 142 0 75 17
80 71 21z m4891 20 c3 -67 -1 -86 -33 -133 -19 -27 -39 -50 -45 -50 -31 0 -66
-215 -64 -394 1 -121 -3 -135 -39 -136 -12 0 -13 32 -7 203 6 170 11 217 32
297 28 105 61 169 108 212 38 35 46 35 48 1z m-5244 -243 c74 -49 102 -60 310
-120 40 -11 75 -27 78 -34 3 -8 4 -30 2 -50 l-3 -35 -80 28 c-44 16 -111 41
-150 56 -38 15 -86 32 -105 38 -19 6 -38 17 -42 23 -5 7 -28 25 -53 41 -40 25
-45 32 -45 66 0 20 3 37 6 37 3 0 40 -23 82 -50z m5616 34 c16 -41 6 -60 -49
-93 -30 -18 -55 -37 -55 -42 0 -5 -7 -9 -15 -9 -8 0 -34 -9 -57 -19 -58 -26
-247 -97 -278 -104 -25 -6 -26 -6 -20 41 l5 47 90 28 c50 15 119 37 155 47 37
12 95 41 135 69 81 56 81 56 89 35z m-2824 -164 c0 -11 7 -23 15 -26 8 -3 35
-36 60 -73 61 -89 62 -121 9 -167 -43 -36 -65 -42 -84 -20 -9 12 -4 19 29 41
23 14 41 30 41 36 0 10 -38 61 -93 123 l-27 31 -41 -45 c-70 -77 -74 -86 -55
-114 8 -14 62 -55 118 -92 106 -70 148 -102 148 -115 0 -4 -14 -12 -32 -18
-30 -11 -34 -9 -54 17 -12 15 -62 54 -111 86 -103 69 -143 104 -143 125 0 28
41 84 114 158 72 74 106 90 106 53z m-2115 -161 c4 -10 4 -28 0 -39 -3 -10 -2
-28 4 -38 6 -11 18 -55 27 -98 23 -115 15 -234 -26 -346 -18 -49 -36 -90 -41
-93 -17 -11 -67 25 -98 71 -35 53 -68 136 -77 194 -5 33 -4 40 10 40 9 0 19
-8 22 -17 34 -112 96 -223 124 -223 5 0 18 30 30 66 16 48 20 72 13 88 -5 11
-10 74 -11 139 -1 100 -4 125 -23 164 -25 51 -82 113 -104 113 -11 0 -15 12
-15 41 l0 40 80 -41 c45 -24 82 -50 85 -61z m4329 26 c-41 -24 -72 -57 -98
-105 -26 -48 -29 -62 -31 -174 -2 -66 -6 -133 -10 -148 -7 -26 18 -122 36
-142 5 -6 17 -2 29 9 26 23 87 146 96 191 4 24 12 34 25 34 11 0 19 -6 19 -13
0 -27 -33 -123 -60 -178 -26 -51 -88 -119 -109 -119 -16 0 -29 25 -60 116 -25
74 -31 108 -31 175 0 82 18 199 38 249 5 14 7 39 5 56 -6 36 17 57 108 97 l54
24 3 -31 c3 -21 -2 -34 -14 -41z m-4749 25 c1 0 5 -33 8 -72 14 -157 55 -359
113 -543 23 -74 37 -99 84 -155 113 -130 324 -286 455 -336 70 -26 228 -54
305 -54 45 0 52 -3 60 -26 6 -14 10 -28 10 -31 0 -3 -60 -3 -132 0 -148 5
-222 24 -342 84 -115 57 -215 132 -337 253 -120 118 -179 206 -179 266 0 14
-11 67 -24 118 -38 144 -54 232 -66 361 -7 66 -16 124 -21 130 -5 5 -9 15 -9
22 0 11 7 10 36 -2 20 -8 37 -15 39 -15z m5087 1 c-6 -3 -14 -35 -17 -71 -15
-139 -45 -319 -70 -413 -14 -53 -25 -110 -25 -125 0 -58 -111 -232 -148 -232
-8 0 -31 -13 -51 -28 -62 -48 -100 -68 -294 -151 -177 -76 -301 -121 -333
-121 -8 0 -14 10 -14 24 0 21 8 26 72 42 119 29 241 83 394 175 99 59 181 139
220 214 16 30 33 55 38 55 4 0 6 -7 2 -15 -8 -23 12 -18 25 6 20 38 78 255 94
354 4 22 14 96 24 165 l17 125 34 11 c23 8 36 8 39 2 2 -6 -1 -13 -7 -17z
m-4902 -256 c36 -8 90 -19 121 -25 52 -10 57 -13 61 -41 3 -16 3 -31 1 -33 -2
-2 -28 2 -56 9 -29 7 -92 18 -142 25 -49 7 -93 16 -96 19 -4 3 -10 21 -14 40
l-7 33 33 -7 c19 -3 63 -13 99 -20z m4768 -12 c-3 -37 -5 -38 -48 -44 -168
-24 -199 -29 -224 -39 -38 -14 -38 -14 -34 23 3 30 6 33 63 45 33 7 80 18 105
24 38 9 101 22 133 27 5 0 7 -16 5 -36z m-2523 20 c14 -5 5 -17 -46 -63 l-64
-58 0 -75 c0 -69 -2 -77 -22 -86 -28 -13 -35 -3 -35 52 -1 48 18 111 45 147
16 21 94 90 103 90 1 0 10 -3 19 -7z m23 -135 c31 -24 59 -45 62 -48 3 -3 28
-19 55 -34 28 -16 52 -30 53 -32 10 -7 -12 -46 -34 -60 -23 -16 -26 -15 -90
32 -36 27 -84 63 -107 79 -49 36 -58 66 -25 89 12 9 24 16 26 16 1 0 29 -19
60 -42z m253 -126 c-8 -27 -30 -57 -75 -100 -35 -34 -69 -62 -74 -62 -5 0 -15
6 -21 14 -9 11 -9 19 1 35 7 12 17 21 22 21 22 0 73 51 96 96 45 88 75 86 51
-4z m1769 -41 c14 -26 13 -85 -2 -134 -17 -56 -73 -112 -127 -127 -50 -13 -56
-10 -47 23 4 19 14 26 44 31 61 9 102 67 102 142 0 27 -4 34 -19 34 -10 0 -24
-7 -31 -14 -6 -8 -27 -20 -45 -26 -35 -12 -49 -34 -111 -185 -21 -49 -45 -85
-85 -125 l-56 -57 2 -77 c1 -42 -2 -79 -7 -82 -4 -3 -8 -30 -8 -59 0 -30 -7
-72 -16 -94 -13 -32 -25 -43 -73 -65 -32 -14 -75 -26 -95 -26 -31 0 -36 3 -36
24 0 44 8 52 49 48 32 -3 39 0 44 17 3 12 13 21 24 21 27 0 44 41 54 125 4 39
11 82 14 97 13 50 -1 73 -65 107 -59 32 -60 33 -60 75 l0 43 38 -7 c20 -5 54
-13 75 -20 81 -24 152 31 186 148 23 76 75 146 125 168 48 21 113 18 126 -5z
m-1495 -139 c-11 -13 -49 -47 -85 -75 -36 -28 -86 -69 -111 -91 -26 -23 -67
-58 -93 -79 l-45 -38 -41 21 c-22 11 -40 24 -40 28 0 10 80 82 220 201 58 48
113 97 123 108 18 20 18 20 55 -16 l38 -36 -21 -23z m-2300 77 c80 -22 105
-66 149 -267 28 -127 98 -166 182 -102 21 16 46 30 53 30 8 0 31 10 50 23 57
38 158 97 165 97 15 0 4 -39 -15 -56 -12 -10 -25 -29 -30 -42 -5 -13 -23 -31
-40 -40 -17 -9 -44 -27 -60 -40 -25 -21 -28 -29 -25 -70 4 -57 56 -187 135
-342 11 -20 49 -25 78 -9 22 12 27 11 39 -6 21 -29 18 -32 -40 -49 -78 -23
-114 -21 -127 7 -5 12 -20 36 -33 54 -12 17 -45 87 -71 155 -27 67 -56 134
-66 148 -9 14 -18 31 -21 39 -3 11 -19 14 -62 12 -38 -2 -65 3 -80 13 -25 16
-86 149 -86 188 0 29 -24 107 -45 148 -18 35 -81 69 -127 70 -33 0 -35 -13
-13 -87 17 -56 74 -117 120 -129 24 -6 45 -37 45 -65 0 -12 -65 -1 -101 17
-47 23 -97 92 -109 148 -24 110 -24 138 -5 152 23 17 85 18 140 3z m1884 -104
c100 -68 100 -68 78 -86 -20 -16 -24 -16 -47 -2 -80 52 -136 89 -140 93 -3 3
-24 21 -48 39 l-43 34 27 18 c27 18 28 17 51 -5 12 -13 68 -54 122 -91z m-700
7 c3 -1 -9 -17 -26 -35 -17 -17 -38 -46 -47 -64 -20 -41 -22 -161 -2 -188 8
-11 12 -24 10 -30 -3 -6 11 -29 29 -50 30 -35 39 -40 81 -40 46 -1 65 -14 66
-42 0 -16 -52 -43 -85 -43 -29 0 -31 -13 -10 -64 17 -40 14 -50 -17 -67 -18
-9 -19 -8 -13 10 4 15 3 19 -7 16 -22 -9 -125 207 -135 281 -3 25 -10 47 -14
50 -5 3 -9 27 -9 55 0 27 -3 49 -8 49 -4 0 -20 -12 -35 -26 -16 -14 -30 -24
-33 -22 -2 3 -7 31 -10 64 l-6 59 61 49 c33 27 74 64 92 82 l33 34 40 -37 c23
-21 43 -39 45 -41z m-309 -44 c0 -18 7 -60 14 -93 8 -33 14 -80 13 -105 -1
-56 29 -159 49 -167 8 -3 25 4 38 16 21 20 24 20 30 6 10 -27 7 -32 -30 -55
-24 -15 -44 -21 -63 -17 l-29 6 -4 -70 c-3 -66 -6 -71 -46 -112 -35 -34 -44
-39 -52 -27 -6 10 -2 24 14 45 37 49 49 91 42 138 -6 37 -15 141 -30 369 -4
61 -3 69 17 83 31 22 37 19 37 -17z m896 0 c4 -6 -9 -27 -32 -48 -21 -21 -44
-46 -50 -56 -6 -10 -34 -32 -61 -49 -64 -38 -158 -111 -200 -153 -27 -27 -34
-30 -39 -18 -10 27 1 40 101 115 53 40 115 90 138 112 80 73 122 108 129 109
4 0 10 -5 14 -12z m4 -148 c0 -5 53 -34 118 -66 247 -120 358 -172 375 -178 9
-3 17 -11 17 -18 -1 -21 -39 -100 -47 -96 -26 11 -189 103 -193 108 -9 12
-144 87 -207 115 -35 15 -63 32 -63 37 0 5 -29 23 -65 40 l-66 30 38 33 c36
31 40 32 66 19 15 -8 27 -19 27 -24z m607 -107 c50 -29 96 -53 102 -53 6 0 25
-9 43 -20 41 -25 46 -25 50 2 4 29 20 32 49 9 l24 -19 -21 -24 c-12 -12 -38
-53 -58 -90 -41 -74 -52 -86 -68 -70 -6 6 -5 19 5 38 8 16 12 35 9 42 -8 25
-77 83 -133 112 -30 15 -61 35 -68 44 -7 9 -57 39 -111 68 -97 51 -98 52 -83
75 l15 23 77 -42 c42 -22 117 -65 168 -95z m-1138 111 c22 -16 81 -131 81
-160 0 -8 4 -14 9 -14 7 0 38 -76 57 -139 3 -10 10 -9 32 5 105 70 281 170
301 171 13 1 38 -5 55 -14 l30 -16 -29 -24 c-64 -52 -223 -172 -277 -208 -32
-21 -58 -41 -58 -45 0 -4 7 -24 15 -43 23 -56 19 -92 -16 -132 -17 -19 -37
-35 -44 -35 -26 0 -22 25 8 57 29 31 30 34 19 70 -19 61 -23 64 -64 50 -19 -7
-56 -30 -81 -50 -26 -21 -71 -49 -102 -62 l-56 -25 -8 23 c-24 64 -24 66 13
81 46 19 131 77 184 124 l44 39 -27 77 c-31 91 -102 226 -118 226 -6 0 -24
-12 -39 -27 -24 -23 -31 -25 -38 -13 -11 18 1 41 41 74 36 31 38 31 68 10z
m-444 -55 l14 -54 -32 -25 c-17 -14 -45 -39 -62 -56 -16 -17 -43 -38 -60 -46
-16 -8 -49 -24 -72 -36 -87 -45 -91 -46 -108 -6 -8 20 -15 42 -15 48 0 6 37
31 82 56 91 50 177 114 209 154 12 15 23 25 26 23 2 -3 11 -29 18 -58z m1595
-166 c0 -6 -55 -126 -80 -173 -24 -47 -33 -110 -21 -143 11 -28 0 -77 -18 -77
-5 0 -17 20 -26 44 -17 43 -16 46 10 138 15 51 40 114 56 139 16 25 29 50 29
55 0 17 22 33 36 27 8 -3 14 -7 14 -10z m-1657 -159 c4 -4 7 -17 7 -28 0 -24
50 -134 81 -177 11 -16 29 -29 40 -29 10 0 19 -6 19 -14 0 -23 36 -29 69 -12
17 9 37 16 45 16 18 0 40 -36 30 -51 -10 -17 -70 -39 -104 -39 -17 0 -41 -5
-52 -11 -17 -9 -26 -5 -59 27 -21 21 -39 43 -39 49 0 6 -11 26 -25 45 -61 83
-122 330 -81 330 7 0 20 7 27 17 12 14 15 8 24 -50 6 -36 13 -69 18 -73z
m2434 92 c7 -6 -15 -199 -23 -204 -6 -4 -14 -17 -18 -29 -11 -33 -95 -113
-141 -134 -47 -22 -124 -24 -242 -7 -69 10 -82 15 -78 28 4 8 11 36 17 61 11
46 11 46 37 33 18 -10 65 -14 150 -14 l125 0 45 48 c43 44 47 52 59 132 7 46
16 88 19 93 4 6 39 1 50 -7z m-1335 -12 c42 -22 125 -101 154 -146 29 -46 33
-108 7 -108 -10 0 -27 -7 -37 -15 -27 -20 -42 -19 -76 7 -34 25 -41 76 -15 98
8 7 15 19 15 27 0 13 3 13 15 3 11 -9 12 -17 5 -30 -15 -27 -12 -66 5 -80 11
-9 20 -8 45 10 16 12 30 28 30 37 0 8 -28 44 -62 80 -93 96 -143 116 -174 69
-15 -24 -44 -26 -44 -2 0 16 62 65 83 66 10 0 32 -7 49 -16z m615 -65 c32 -29
81 -62 110 -75 28 -13 54 -27 57 -32 7 -11 -22 -99 -35 -107 -14 -9 -44 11
-97 64 -27 27 -68 59 -90 70 -22 11 -44 25 -47 31 -8 12 24 100 36 100 4 0 34
-23 66 -51z m-416 4 c45 -38 89 -102 89 -129 0 -12 5 -24 12 -26 16 -6 -48
-98 -67 -98 -8 0 -34 -18 -57 -40 -23 -23 -46 -39 -53 -37 -6 3 -28 -8 -50
-24 -21 -16 -48 -29 -59 -29 -12 0 -34 -7 -50 -15 -16 -9 -67 -27 -114 -40
-47 -14 -88 -29 -92 -34 -21 -35 -170 -31 -233 7 -18 10 -53 55 -87 112 l-57
94 35 29 36 28 20 -34 c12 -18 31 -44 44 -57 12 -13 22 -29 22 -34 0 -6 18
-31 41 -55 35 -38 44 -42 72 -38 72 12 265 67 302 86 21 12 45 21 52 21 22 0
187 86 222 116 26 22 31 32 26 53 -13 50 -47 92 -97 117 -41 21 -47 28 -38 40
18 21 45 17 81 -13z m770 -2 c35 -35 40 -88 10 -115 -26 -24 -65 -17 -69 12
-3 18 1 22 22 22 14 0 26 3 26 7 0 14 -34 43 -49 43 -19 0 -71 -95 -71 -129 0
-26 -40 -135 -73 -198 -21 -41 -54 -63 -97 -63 -17 0 -130 70 -130 81 0 4 8
17 18 29 l18 23 42 -27 c23 -14 56 -27 74 -28 39 -4 46 8 109 182 49 136 63
166 86 179 30 17 53 12 84 -18z m-1151 -20 c59 -7 124 -40 140 -71 26 -49 4
-110 -39 -110 -31 0 -91 57 -91 85 0 21 39 19 47 -2 6 -19 42 -52 56 -53 15 0
7 57 -10 72 -24 20 -117 42 -148 34 -18 -5 -25 -13 -25 -30 0 -26 44 -86 63
-86 7 0 39 -21 72 -46 33 -25 67 -49 75 -54 13 -9 13 -11 0 -20 -38 -26 -60
-23 -108 16 -108 87 -143 147 -123 205 7 20 7 37 1 49 -11 21 -2 33 19 24 9
-3 41 -9 71 -13z m-626 -43 c14 -32 28 -71 67 -195 11 -34 33 -76 49 -93 27
-29 35 -32 70 -27 74 10 68 -44 -7 -59 -64 -13 -106 40 -177 223 -26 68 -52
125 -57 128 -4 3 -11 -6 -15 -21 -5 -19 -2 -29 10 -36 24 -13 20 -37 -8 -44
-39 -9 -49 3 -44 57 7 65 30 99 68 99 25 0 33 -6 44 -32z m1403 -69 c8 -8 4
-24 -17 -58 -15 -25 -30 -58 -34 -73 -7 -30 -101 -149 -149 -189 -49 -40 -92
-59 -137 -59 -41 0 -102 20 -130 44 -8 7 -36 20 -62 30 -27 10 -48 21 -48 25
0 4 22 13 48 20 44 11 55 10 125 -13 42 -15 84 -23 94 -19 10 3 36 22 58 42
34 30 40 33 43 18 5 -25 24 -16 41 19 18 40 142 224 150 224 4 0 12 -5 18 -11z"/>
<path d="M4508 5743 c-96 -50 -287 -284 -369 -451 -39 -79 -41 -86 -31 -134 5
-29 6 -65 1 -86 -15 -66 -13 -72 29 -72 43 0 159 62 249 132 30 24 70 54 88
68 43 32 106 105 131 150 30 55 24 178 -15 309 -17 57 -32 105 -33 106 -2 2
-24 -8 -50 -22z"/>
<path d="M3260 2635 l0 -65 190 0 190 0 0 65 0 65 -190 0 -190 0 0 -65z"/>
<path d="M4290 1091 c0 -5 3 -16 6 -25 5 -12 10 -13 24 -4 17 11 17 13 2 25
-20 15 -32 16 -32 4z"/>
<path d="M0 10 c0 -7 1157 -10 3450 -10 2293 0 3450 3 3450 10 0 7 -1157 10
-3450 10 -2293 0 -3450 -3 -3450 -10z"/>
</g>
</svg>
