<svg version="1" xmlns="http://www.w3.org/2000/svg" width="682.667" height="682.667" viewBox="0 0 512.000000 512.000000"><path d="M232.5 2.1c-42 4-83.5 18.8-118.9 42.4-12.5 8.3-16.2 11.5-9 7.9 2.5-1.3 7.3-2.9 10.6-3.5 5.3-1.1 6.2-1.6 8.8-5.4 3.6-5.2 8.8-7.9 15.6-7.9 4.8-.1 5.3-.3 7-3.6 3-5.4 8.5-8 17.4-8 7 0 23.7 2.3 24.8 3.5.8.8-1.8 3.3-4.6 4.3-2 .7-4.7.4-9.7-.9-8.8-2.3-13.9-2.3-19 0-5.2 2.3-7.5 4.9-5.4 6.2 2.6 1.6 5.8.9 9.1-2 8.4-7.2 11.4-6 5.8 2.4-9.2 13.8-8.1 16.2 11.6 25.6 8 3.8 15.2 6.9 16 6.9 2 0 1.8-2-1.2-8.4-1.9-4.3-2.4-6.6-2-9.1.7-3.8 5-9.5 7.1-9.5 1.9 0 2.8 9.2 1.9 20.5l-.7 9.5 12.4 12.6c12.6 12.8 20.5 19.4 23.1 19.4 3.8 0 5-10.8 1.9-17.5-2.7-6-4.8-7.3-12.1-8-8.6-.7-14.5-4.3-17.8-10.8-1.4-2.6-2.2-5-1.8-5.4.8-.9 16.4 2.5 19.9 4.3 1.5.8 3.9 3.4 5.3 5.7 3.8 6 5.4 7.6 7 7 2.1-.8 1.7-4.3-1.2-10.2-3.5-6.9-8.1-9.9-17-11.2-9.2-1.3-9.9-1.5-12.9-5-2.5-3-3.4-7.9-1.5-7.9 2.9 0 8.9 3.5 12.1 7 2 2.2 4.2 4 4.8 4 4.6 0-5.4-9.9-15.4-15.3-4.6-2.5-7.9-4.9-7.7-5.6.5-2.1-9.3 6.5-16.5 14.5-3.7 4.1-7.4 7.4-8.4 7.4-.9 0-2.7-.8-4-1.9l-2.3-1.9 5.1-5.8c7.1-8.2 14.5-15 23.6-21.8 4.4-3.1 7.6-6 7.4-6.3-.3-.3-2.5.2-4.9 1.1-4.9 1.8-14.6 2.6-14.9 1.1-.1-.5 1-1.8 2.5-3 2.3-1.7 4.6-2.1 14.2-2.3 10.9-.4 14.3-1.4 8.8-2.8-1.4-.4-5.9-.4-10-.2-6 .4-8.9 1.2-14.7 4.1-4 2-8.5 3.9-10.2 4.3l-3 .7 3-3.3c3.7-4 10.3-7.4 18.2-9.4 7.7-2 14.5-2 21.2 0l5.2 1.5 3.5-3c1.9-1.7 3.6-3.1 3.7-3.2 4.6-1 9.6-.8 13.8.7 5 1.8 5.1 1.8 8.9-.4 5.3-3 12.2-3 17.4.2 3.9 2.3 3.9 2.3 8 .5 5.4-2.4 10.1-2.3 15.6.3 3.8 1.8 6.4 2.2 17.5 2.3 7.2 0 14.4.4 16 .8 1.7.4 1 0-1.5-.8-7-2.4-29.3-6.3-42.5-7.4-13.8-1.2-32-1.2-45 0z"/><path d="M252.1 10.1c-2.3.9-2.4 1.1-.7 2.7 1.2 1.2 3.4 1.7 8.1 1.7h6.4l-2.2-2.2c-2.6-2.6-8.2-3.6-11.6-2.2zM226.1 12.2l-3.4 2.2 2.9 1.3c4.1 1.7 6.5 1.6 9.8-.6l2.9-1.9-3.1-1.6c-4-2.1-5-2-9.1.6zM275.3 11.7c-3.4.6-2.8 1.6 2.2 4.1 4.3 2.1 4.7 2.1 8.6.6l4-1.7-2.8-1.8c-2.6-1.8-6.9-2.2-12-1.2zM330 13.9c3 1.6 7.5 4.7 10 6.8 3.9 3.5 5 3.9 8.3 3.5 5.5-.6 12.1 2.2 15.9 6.9 2.4 3 3.8 3.9 6.2 3.9 8.3 0 15.4 5.1 19.2 13.7 1.2 2.8 1.8 3.3 2.1 2 1.2-4.7 17.3 1.6 26.2 10.2 5.4 5.3 10.5 14.2 9.6 17-.4 1.3.6 2.1 4.6 3.5 6.3 2.3 10.4 5.7 13 10.8 1.5 3 1.7 4.3.9 5.3-.9 1.1 0 2 4.8 4.4 3.2 1.6 7.3 4.2 9 5.6 7.6 6.4 12.9 24.7 11.9 41-.3 4.9-.8 9.9-1.1 11-.5 1.5.4 2.7 3.4 4.7 4.1 2.9 5.3 5.8 2.3 5.8-.9 0-6.1-2.1-11.5-4.6-5.4-2.5-10.5-4.3-11.3-4-2.7 1-2.8 5.3-.3 9.7 1.2 2.4 2.8 4.4 3.3 4.5.6.2 2.2-1.5 3.7-3.6 4.7-6.8 8.5-4.2 4.7 3.2-2.5 4.9-1.8 5.9 4.7 6.1l4.9.2 3.3-8c4.3-10.5 4-15.5-1.2-22.1-2-2.6-3.6-5.6-3.6-6.6 0-5 8.4 1.2 11.4 8.4.9 2.1 1.6 6.6 1.6 10.1 0 5.7.3 6.6 3 9.2 1.6 1.5 3.6 4.3 4.5 6 1.7 3.7 2 12.1.5 15.9-.8 2.2-.7 2.6.8 2.6 1.1 0 2.8 1.7 4.2 4.2 3.2 5.6 3.2 13.5.1 19.6l-2.2 4.3 3.2 3.7c4.4 5 6.7 10.6 8 19.8 1.9 13.7-.7 25.9-7.5 35.5-2 2.7-3.6 5.4-3.6 6 0 .6 1 2.5 2.2 4.1 3.2 4.5 2.7 10.1-1.5 18.5-3.1 6.1-3.6 7.9-3.4 13.5.2 5.9-.1 7-3.4 11.9-4.1 6.2-4.6 7.4-5.5 14.4-1.1 9.4-6.5 14.5-18.5 17.9-7.6 2.2-9.9 4.9-10.9 12.8-.4 3.6-1.4 7.8-2.3 9.4-3.2 6-12.1 12.4-17.4 12.4-4.7 0-4.2-2.4 1.1-5 8.5-4.1 14.6-13 14.6-21.3 0-4.3-3.2-14.9-4.8-15.4-3.3-1.3-15.4 8.8-21.3 18-4.1 6.4-8.4 17.9-7.5 20.2.3.8 1.4 1.5 2.5 1.5 3 0 5.1 1.1 5.1 2.6 0 .9-1.1 1.4-2.7 1.4-4.5 0-5.9 1.4-4.8 4.7 1.4 3.7 5.3 5.8 9.1 4.9 2.5-.7 2.6-.9 1.1-1.7-1.4-.8-1.7-2.4-1.7-9.2.1-10.4 1.4-16 5.1-21.9 3.1-4.7 12.1-11.8 15.1-11.8 2.8 0 3.3 2.2.9 3.9-5.5 3.8-11.4 9.8-13.4 13.6-1.6 3.1-2.2 6.3-2.5 14.7l-.4 10.8h2.4c6.8 0 20.1-10.7 26.2-21.1 1.4-2.6 3.3-8 4.2-12 .8-4 2-7.9 2.6-8.6 2.9-3.5 4.3.6 2.9 8.4-2.7 14.6-13.9 29.1-27.8 36-6.1 3-8.8 3.7-15.3 4.1-7.7.4-8 .4-11-2.6-2.3-2.3-3-4-3-6.8v-3.7l-4.7.7c-19.6 2.7-31.6 3.6-39.5 3l-8.8-.7-2.5 5.9c-4.7 10.7-6.9 14.8-12.6 22.4-5 6.8-10.3 12.3-12.8 13.2-1.5.5 8.1 27.8 9.7 27.8.8 0 3.2-1.4 5.3-3.1l4-3.1-4.5-4.2c-6.5-6-8-11.1-5.4-18.4 1.2-3.2 1.5-3.3 4.8-2.8 6.8 1.1 13 8.1 13 14.7 0 2.1-.4 4-.9 4.3-1.3.8-4.8-3.4-7-8.7-2.1-4.9-4.5-6.1-5.6-2.7-1.1 3.4 2.5 9.2 7.2 11.8 9.6 5.3 18.9 3.7 28.6-4.6 5.2-4.5 7.7-5.3 7.7-2.3 0 3.1-4.3 8.4-9.4 11.6-4.4 2.6-5.8 3-12.5 3-4.2 0-9-.4-10.7-.8-2.9-.7-3.1-.6-2.7 1.6.4 2-.7 3.1-7.6 7.6-11.1 7.3-11.4 7.3-12.3-1.9-.9-8.9-3-16.2-5.9-20.9l-2-3.4-1.7 2.6c-.9 1.5-8 7.7-15.7 13.8-11.1 8.9-16.4 12.3-25.5 16.6-6.3 3-12.9 5.5-14.6 5.5-1.7 0-5-1.2-7.2-2.7-3.6-2.4-3.9-2.9-2.9-4.6 1.4-2.3 4-2.4 7.2-.3 2.9 1.9 6.1 1.1 14-3.6l5-2.9-8-3.8c-4.4-2-8.3-3.9-8.7-4.1-.5-.2-.8.5-.8 1.5 0 1.8-16.6 17.9-20.8 20.2-2.1 1.1-3.6.7-12.3-3-5.5-2.3-9.8-4.7-9.6-5.3.7-2 7.8-1.8 12.9.4 2.9 1.2 5.8 1.8 6.9 1.5 1.2-.4 6.3-4.4 11.4-9l9.3-8.3-3.4-3.3c-3.8-3.6-4.1-5-1.9-6.9 1.2-1 2.4-.6 6.8 2.4 5.9 4.1 6.7 4.3 6.7 1.8 0-.9 3.2-4.5 7-8 3.9-3.5 7-6.8 7-7.3s-1.2-.9-2.7-.9c-1.4 0-4.5-1.1-6.9-2.5l-4.2-2.5-12.3 12.5c-7.1 7.3-13 12.4-13.9 12.3-2.8-.6-2.2-4.2 1.4-7.7l3.4-3.3-7-6.7c-3.9-3.6-7.6-6.6-8.2-6.6-1.3 0-11.2 8.3-10.5 8.8.5.3 23.7 20.4 25.8 22.3 1.7 1.5.5 5.4-1.6 5.4-.9 0-3.7-1.7-6.2-3.7-6.2-4.9-8-6.2-6.3-4.3.6.8 1.2 1.8 1.2 2.2 0 .5-6 3.7-13.2 7.2l-13.3 6.3 4.7 3c2.6 1.7 8.5 4.3 13 5.8 7.1 2.4 10.3 2.9 22.3 3.3 15.6.4 21.9-.6 35.2-5.8 11.1-4.3 11.2-4.4 8.4-7.4l-2.4-2.5 2.6-.6c1.4-.4 5.7.2 9.9 1.4 8.9 2.5 12.1 2.6 14.2.5 1.8-1.8 2-3.2.6-5.4-.8-1.2-1.4-1-3.8 1.3-1.9 1.8-3.9 2.7-6.1 2.7-1.8 0-3.1-.4-2.9-.9.6-1.6 13.8-15.1 14.8-15.1 1.5 0 2.2 4 2.3 13.7l.2 8.8H316c-5.2 0-11.3-.3-13.5-.7l-4-.7 2.4 1.8 2.5 1.9-8.5 4c-12.7 6.2-21.4 8.3-36.1 8.9-10.8.5-14.1.2-22.2-1.6-9.7-2.3-24.1-8.6-32.1-14.1-4.8-3.3-6.4-3.8-4.5-1.5 2 2.5-.1 3.7-6.5 3.9-4.5.1-5.9-.3-7.1-1.8-1.9-2.7-1.8-13 .2-18.2l1.6-4.2 10.2 8.4c5.5 4.6 10.6 8.4 11.1 8.4 1.7-.1 6.1-4.3 4.9-4.7-3.1-1.1-16.8-11-23.3-16.8l-7.4-6.7-1.8 4.7c-2.5 6.6-3.9 13.7-3.9 20 0 5.3-.1 5.5-2.7 5.5-4 0-12.4-5.2-16.7-10.1-2-2.4-3.6-4.7-3.6-5.2 0-.6-.9-.2-2 .8-1.6 1.5-3.2 1.7-8.7 1.3-7.3-.5-12.1-2.5-16.6-6.7-3.5-3.2-6.7-9.2-6.7-12.5 0-2.3-.1-2.4-2.6-1.2-5.5 2.9-15.3-3.4-20-13-2.2-4.6-2.6-6.3-2.1-10.5 1.2-9.9 6.5-15.3 15-15.4 4.7 0 5.2.2 5.5 2.4 1 6.9-3.8 14.9-10.4 17.3-3.8 1.4-4 1.8-2 5.6 2 3.9 5.5 6.8 10.8 9.1l4.6 2 .7-5.1c1.7-12.3 7.1-18.6 18.8-22.3 4.3-1.4 8.9-2.5 10.2-2.5 7.3 0 4.1 15.1-5.2 24.3-3.9 4-12 8.7-14.8 8.7-3.4 0 .1 8.4 4.8 11.5 2.2 1.4 14.1 4.4 17.7 4.5 1.2 0 1.4-1.3 1.2-6.7-.4-9 2-12.9 9.6-15.7 6.7-2.4 7.5-1.7 8 7.2.4 6.6.3 6.9-3.1 10.5-6.1 6.5-9.2 3.8-4.1-3.5 1.9-2.7 2.5-4.4 2-6.3-.8-3.1-2-3.2-5.1 0-4.5 4.4-2.5 12.4 4.8 19.4 4.1 3.9 6.1 3.6 7-.9 1.7-8.5 6-20 7.5-20 .9 0-.4-2-3.5-5.3-5-5.3-13.6-18.5-19.1-29.3-5.4-10.6-3.5-9.8-24.3-9.9-19.4-.2-27.8-1.6-30.7-5.3-1.9-2.5.6-3 9.7-1.9 9.7 1.1 24.1.3 30.8-1.8 6.9-2.1 11.3-7 11.3-12.6 0-3.7-.3-4.1-4.2-5.9-3.1-1.4-6.6-2-12.1-2-7.4 0-8.1.2-10.5 2.9-1.5 1.6-3.5 4.3-4.5 6-1.6 2.7-1.6 3.2-.3 3.7 1.7.6 11.6-6.4 11.6-8.3 0-.7.9-1.7 2-2.3 1.5-.8 2.1-.6 2.9.9.8 1.4.5 2.9-1.2 6.2-1.7 3.4-3.4 5-7.6 7.1-6.5 3.4-9.4 3.5-12.2.7-1.7-1.7-2-3-1.7-6.9.6-5.9 3.7-10.4 9.1-13.2 3.6-1.9 6-2.3 17.7-2.5 7.4-.1 14.5-.5 15.8-.8 1.2-.3 3.1-2 4.2-3.8 3.6-5.9 3.4-6.1-10.2-5.3-13.1.8-16.4 1.9-17 5.8-.4 3.2-6.3 3.6-11.7.9-6.5-3.3-7.7-2.9-9.5 3.3-2.8 9.6-13.1 15.6-15.6 9-2.3-5.9-1-10.5 4.3-16.2 1.9-2 2.7-3.6 2.1-4.1-.7-.8-17-3.1-21.4-3.1-1.9 0-1 3.3 2.4 7.9 4.8 6.6 8.2 13.8 10.6 22.2 2.3 8.3 2.5 13.5.9 20.9-1.2 5.5-2.2 6.4-9.1 7.5-2.1.3-3.8.8-3.8 1.1 0 1.4 2.7 5.3 6.3 9.3 3.5 3.9 3.8 4.5 2.3 5.3-2.5 1.4-7.2-.8-10.3-4.9-2-2.6-2.7-5.1-3.4-11.8-1.2-11.4-2.4-13.5-10.5-17.6-9.9-5.1-14.4-12-14.4-22.4 0-5.3-.2-5.7-3.6-7.7-2.2-1.3-3.3-2.6-3-3.5.3-.8.6-1.6.6-1.9 0-.2 1.2.1 2.6.6 3.3 1.3 5 0 6.4-4.9 1.3-4.8 1.3-6.1-.3-5.5-.8.3-3.5-.4-6.1-1.6-2.6-1.1-4.8-2-4.9-2-.1 0-.3 5.7-.5 12.8-.3 10.4 0 13.8 1.6 18.9 3.6 11.4 14.3 23.5 24.5 27.8 3.1 1.3 4.7 3.1 4.7 5.6 0 3-12.3-2.9-19.7-9.5-9.6-8.7-16.2-22.6-16.3-34.3 0-5.8-.2-6.2-2.8-7.1-7.6-2.6-13.1-11-13.2-19.8 0-4.1-.5-5.5-2.6-7.5-4.8-4.5-6.7-9.6-6.1-16.7.4-5.5.2-6.7-1.8-9-5.1-6.1-6.4-12.7-4-19.3 2.9-7.6 2.8-8.2-.7-13.5-5.3-7.8-7.3-15.3-7.1-26.4.1-10.7 2.2-18 7.5-26.3 2.9-4.6 3.1-5.2 1.9-8.1-3.2-7.6-3.4-9.9-1.8-15.6.9-3.1 3-6.9 4.7-8.7 2.5-2.7 2.9-3.6 2-5.2-3-5.7.3-15.9 6.9-21.2 3.4-2.7 3.9-3.4 2.6-4.1-2.3-1.3-1.9-8.5.9-14.4 2.9-6.3 6.8-9.3 17.2-13.3 7.7-3 12.4-6.5 13.7-10.4.4-.9.4-1.7.1-1.7-1.2 0-5.3 2.6-10.2 6.7-5.7 4.5-9.2 5.5-9.2 2.5 0-4 3.2-14.9 5.7-19.5 2.8-5.1 11.5-13.7 13.9-13.7 1.9 0 1.8 3.5-.2 5.1-2.5 2.1-9.4 12.6-9.4 14.3 0 2.2.8 2 6.9-2.2l5.3-3.8.3-6.9C62 97.4 67.1 87.2 74.3 84c2.4-1.1 4.6-1.5 5.2-1 .6.5 3-2.8 6.5-9.2 3-5.5 7.2-12.1 9.5-14.6 4-4.6 3.9-4.6-3.6 1.6-9.3 7.6-27.5 26.2-35 35.7C28.2 132.8 10.5 173.6 3.3 220c-2.5 16.2-2.5 55.8 0 72 5.3 34 17.6 68.2 34.9 96.8 33.6 55.7 90.3 97.3 155.5 114.2 85.2 22.1 179.2-3.9 242.3-67 77.4-77.4 96.7-196.4 47.6-293.8-6.8-13.5-10.2-19.4-18.4-31.2-30.7-44.6-74.8-78.1-126.6-95.9-13.8-4.8-16.2-5.1-8.6-1.2zm76.6 404.7c6.1 2.9 10.3 11.2 6.7 13.2-1.6 1-1.6 1.1-.2 1.7 2.7 1 8.8-2.1 10.7-5.5 1.5-2.8 5.6-5 6.8-3.7 1.2 1.2-1.2 6.3-4.7 9.8-5.7 5.7-14 6.4-23 1.8-5.7-2.9-9.9-10.9-8.5-16.4.6-2.2 1.2-2.5 4.7-2.5 2.3 0 5.6.7 7.5 1.6zm-32.8 7.4c9.2 4.2 14.3 10.2 16.4 19.3.8 3.5.6 4.3-.8 5.4-1.5 1.1-1.2 1.3 2.7 1.3 5.7 0 10.7-2.7 13.8-7.3 1.7-2.5 3.2-3.7 4.8-3.7 3.2 0 3 2.8-.4 7.2-4 5.1-8.1 7.7-14.6 9-15.9 3.3-32.9-7.4-36.7-23.2-.7-2.8-.9-6.2-.6-7.5.6-2.3 1.1-2.5 5.9-2.5 3 0 7 .9 9.5 2z"/><path d="M400 424.4c0 2 6.4 8.6 8.4 8.6 2.1 0 2-.6-.9-5.7-1.9-3.2-3.2-4.3-5-4.3-1.5 0-2.5.6-2.5 1.4zM366 431.5c-1.7 2 .3 7.7 4.3 12.2 3.4 3.8 9.7 7.2 13.5 7.3 1.9 0 2.2-.4 1.6-2.8-2-8.5-5.6-13.4-11.9-16.3-4.9-2.3-5.9-2.3-7.5-.4zM310 14.1l-3.5.6 2.8 1.1c3.2 1.3 4.8 1.5 7.1.6 4.3-1.6-.4-3.4-6.4-2.3zM241.7 17c-1.2 4.7-14.3 6.4-22.3 3-3.1-1.3-3.3-1.2-11 5.1l-7.8 6.4 4.1.7c2.2.3 7.3 2 11.3 3.7 4 1.7 7.9 3.1 8.7 3.1.8 0 4-2.7 7.1-6.1 3.1-3.3 7.8-7.6 10.4-9.5 5.2-3.9 5.7-5 3.1-7-2.4-1.8-3-1.7-3.6.6z"/><path d="M264 17.9c-.8 1.6-.6 2.3 1.2 3.5 1.3.9 5.8 5 10.1 9.2 7.6 7.4 8 7.6 12 7.2 2.3-.3 13.6-3.3 25.1-6.6 12.5-3.7 21.8-6 23-5.6 1.8.6 1.8.3-.6-2.2-2.9-3.2-8.8-7-8.8-5.8 0 .4 1 1.8 2.2 3.1 3.7 3.9.6 4.6-7.1 1.6-10.6-4.1-11.1-4.1-7.3-.1 1.7 1.8 3.2 3.7 3.2 4 0 .3-1.6.9-3.6 1.2-3.1.6-4.1.3-7.7-2.7-8.5-6.9-8.8-7-13.8-4.7-6.7 3-14.2 2.7-20.4-1-5.9-3.5-6.1-3.6-7.5-1.1zM248.2 28.8c-8 7.7-10 14-6.3 19.6 1.8 2.8 1.9 2.8 3 .8.6-1.1 1.1-3.8 1.1-6 0-2.9.9-5.3 3.3-8.8 4.6-6.6 6.7-7 6.7-1.1 0 3.7-.6 5.3-3.5 8.7-1.9 2.3-3.8 5.3-4.1 6.6-2.1 8.5 6 17 10.9 11.6 2.2-2.5 2.1-4.8-.3-7.9-2.2-2.8-2.6-7.6-1-11.8 2.4-6.2 7.4 2 6.5 10.3-.6 5.2-.6 5.3 1.4 4.3 2.9-1.6 5.1-5.1 5.1-8.4 0-5.6-11.4-23.7-14.9-23.7-1 0-4.6 2.6-7.9 5.8zM335 31.1c-1.9 1-4.3 1.8-5.2 1.9-3.6.1-2.4 2 7.2 11.5 7 6.8 10.4 9.5 11.6 9.1.8-.3 1.8-.6 2-.6.2 0 .4-1.5.4-3.3 0-5.7-8.3-20.9-11.3-20.6-.7.1-2.8.9-4.7 2zM348 29.9c0 2.3 7.1 8.1 9.8 8.1 1.6 0 3.4.6 4.1 1.2 1 1 1 .5-.1-2.1-.8-1.9-2.5-4.2-3.8-5.2-3-2.2-10-3.6-10-2zM314.4 40.2c-5.1 3.8-5.1 4-.6 3.3 4.3-.7 9.2 1.2 9.2 3.5 0 1.7-7.4 3-13.6 2.4-7.7-.8-10.6.6-16.2 7.9-2.3 3-4.2 5.7-4.2 6 0 .4 1.9-.7 4.3-2.3 4.5-3.3 14.4-5.6 16.2-3.9 1.3 1.3-1.2 5.6-4.8 8.3-2.5 1.8-4.1 2.1-11.7 1.9l-8.9-.2-3.4 4.2c-5.6 6.8-11.7 17.5-11.7 20.4 0 2.5.1 2.6 2 .8 1.1-1 3.4-4 5.2-6.8 2.7-4.2 4.4-5.5 10.4-8.4 4-1.8 8-3.3 8.8-3.3 2.2 0 2 2.8-.6 8-3.2 6.2-8.2 9.8-15.1 11-8.8 1.4-13.7 5.9-13.7 12.5 0 3.7 2.9 3.2 7.5-1.5 4.5-4.6 9.1-7 13.4-7 3.7 0 8.1 1.9 8.1 3.6 0 1.7-14.1 7.4-16.8 6.7-2.8-.7-6.7 1.9-9.2 6-2.3 3.7-2.7 12.4-.7 15.1 1.2 1.6 2.8.8 19.8-10.2 23.2-15.2 23.6-15.5 25-20.1 1-3.3.8-4.4-1.2-9.2-2.7-6.1-3.3-18-1-20.2 1.7-1.7 6.6 3.8 8.2 9.2 1 3.5.9 5-1.5 12.4-3 9.9-3 9.7-1.2 9.7 2.4 0 6.3-3.9 8.5-8.5 2.9-6.1 2.8-12.5-.3-17.3-2.3-3.5-8.1-20-7.3-20.8.9-1 8.4 2.1 10.8 4.5 4.4 4.4 5.1 8.8 2.8 17.8-2.1 8.8-2.4 14.3-.8 14.3 2.1 0 7.5-6.7 8.7-10.7 2.6-8.5 1.9-11-6.9-24.4-8.8-13.4-11.6-16.9-13.4-16.9-.7 0-2.5 1-4.1 2.2zM368 38.5c0 2 3.6 6.9 6.3 8.5 5.9 3.6 11.6 1.8 7-2.2-4.4-3.8-13.3-8-13.3-6.3zM134.9 41.3c-3.5 1.6-9.3 6.6-8.5 7.4 1.1 1.2 6.5.4 9.6-1.4 1.7-1 4.5-2.5 6.2-3.5 2.9-1.6 2.9-1.6.6-2.3-4.7-1.4-5.4-1.4-7.9-.2zM361.7 43.1c-2.6 3.7-2.2 7.6 1.1 9.3 2.4 1.2 17.6 3.6 22.7 3.6 1.9-.1 1.9-.1.1-1.5-1.1-.8-3-1.2-4.6-.8-5.9 1.1-12.7-3.1-16.2-10.1l-1.5-2.9-1.6 2.4zM146 43.4c0 2.3-5.1 7.8-8.7 9.2-1.8.8-4.7 1.4-6.5 1.4-1.8 0-3.8.4-4.4.8-1.2.8-2.4 6.3-5.9 26-3.2 18.6-2.3 21.2 7.9 21.2 5.9 0 7.4-.7 9.1-4.1 2.2-4.1 1.9-5.3-2.5-10.4-5.1-5.9-6.7-11.1-5.1-16.5.6-2.2 1.7-4 2.4-4s2.8 2.4 4.7 5.2c3 4.5 3.5 6 3.5 11-.1 3.6.3 5.7 1 5.5.5-.2 3.3-4.2 6.2-8.8 2.8-4.6 6-9.5 7-10.8 1.8-2.3 2-2.3 5.1-.7 1.8.9 3.2 2.2 3.2 3 0 .7-2.9 8.2-6.5 16.5-6.3 14.8-8.4 22.2-5 17.7.8-1.1 1.5-2.9 1.5-3.9 0-2.8 6-12.9 7.4-12.4.6.2 1.2 2.2 1.4 4.4.3 3.5-.3 4.7-4.2 9.3-8.6 10.1-8.2 22.3 1.1 34.7 1.3 1.8 2.8 3.3 3.4 3.3 1.6 0 1-4.1-1.1-6.7-3.1-3.9-4.1-9-2.9-13.9 1.2-4.8 4.5-8.6 5.4-6.3 1.9 5.4 3.2 14.7 2.8 19.7-.7 7.6 1.1 11.3 7.2 14.2 2.5 1.2 4.9 2 5.5 1.8.5-.1-.5-2.5-2.3-5.3-4.2-6.5-4.3-11.4-.2-18 1.7-2.7 3.5-5 4.1-5.2 1.3-.4 3.8 9.6 3.7 14.7 0 1.9-.4 6.3-.8 9.6l-.8 6.1 4 3.9c4.4 4.3 25 17.1 25.9 16.1.4-.3-1.7-3.3-4.5-6.5-4.9-5.6-9.9-15.7-8.6-17.1.3-.3 3.2.8 6.3 2.4 7 3.7 10.2 8.1 10.2 14.2 0 8.2 3.5 13.1 10.8 15.2 3.9 1.1 7.3-.5 8.5-4.1 1.4-4.5-1.8-9.7-7.8-12.8-3.6-1.8-6-4-8.7-8-2-3-3.3-5.9-2.9-6.3 1.3-1.3 9.3 1.2 12 3.6 1.3 1.2 3.2 4 4.2 6.2 1.7 3.5 1.9 3.6 1.4 1-1-5.3-7.2-17.3-9.9-19-2.1-1.4-3.8-1.6-9.4-1-7.7.9-17.1.7-22.2-.4l-3.5-.8 3.7-3.5c2.1-2 5.8-4.4 8.3-5.4 5.8-2.2 9.8-1.1 17.4 4.6 9.7 7.3 9.6 4.8-.3-7.4-11.9-14.5-13.3-15.8-15.9-15-1.2.4-3.5 1.7-5 3-2.1 1.8-4.1 2.4-7.4 2.4-4.6 0-10.6-2.7-10-4.5.2-.5 3-2 6.3-3.2 4.7-1.8 7.1-2.1 11.9-1.7 5.8.6 5.9.5 4.2-1.2-1.5-1.6-3.5-1.9-13.6-1.9-10.9 0-12.1-.2-15.4-2.5-2-1.4-4.5-4.1-5.6-6.1-2.1-3.7-2.8-8.9-1.2-8.9.4 0 7.3 3.1 15.3 7 8 3.8 14.8 7 15.2 7 2.1 0 0-4.7-3.8-8.5-4.3-4.3-5.6-4.9-17.1-7.4-6.9-1.6-13.9-9.1-8.5-9.1 3.2 0 8.3 2.5 10.9 5.4 2.4 2.5 5.1 3.5 5.1 1.7 0-1.5-14.1-11.8-21.1-15.5-8.5-4.4-20.3-7.1-27.4-6.2-6.3.7-8.5.1-8.5-2.4 0-2.2 1.3-2.7 11.3-4 4.3-.5 8.6-1.4 9.7-2 4.1-2.2 5.3-8.2 2.1-10-2.6-1.3-3.1-1.3-3.1.4zM391 54.3c0 .8-.6 1.7-1.2 2-.7.2 1.9 1.4 5.9 2.6 9.7 2.9 16 7.3 20.1 14.1 4.9 8.2 9.1 24 6.4 24-1.3 0-5.3-7.5-7.2-13.5-2.7-8.3-8.6-15-15.7-18-4.3-1.8-4.3-1.8-4.3-.2 0 2.5 6.9 9.5 10.9 11.1 3.4 1.3 6.1 4 6.1 6 0 .3-2.3 1.5-5 2.7-5.3 2.3-6.8 4.1-8 9.6-.7 2.8-.6 3 .9 2.1 1.3-.8 3.8-.2 10.8 2.6 5 2 9.5 3.6 10.1 3.6 2.5 0 4.2-3.3 4.2-8.3 0-6.8.9-8.2 3.8-6.1 1.9 1.3 2.2 2.4 2.2 8.8 0 8.5 1.6 11.3 8.1 14.6 3.4 1.8 3.9 2.5 3.9 5.5 0 2.3-.4 3.3-1.2 3-20.9-6.4-42.6-14.1-43.5-15.3-1-1.3-1.3-1.3-1.7-.1-.3.8-1.4 3.9-2.6 6.9-1.1 3-2 5.6-2 5.7 0 1 2.7-.1 5.6-2.3 2-1.6 5.2-2.9 7.9-3.2 4.8-.5 10.8 1.3 10.2 3.2-.7 2.1-11 5.6-14.9 5-2.3-.3-4.7 0-6.7 1-4 2.1-17.1 18.4-17.1 21.3 0 4.9 8 6.8 14.7 3.6 4.2-1.9 6.8-5.9 7.7-11.5.9-5.5 7.6-12.3 12.9-13.3 2.1-.4 4.1-.5 4.4-.1 1.3 1.3-5 13.7-8.8 17.1-2.2 1.9-4.3 3.5-4.9 3.5-1.1 0-5 4-5 5.2 0 1.2 6.4 1 11.6-.3 5.3-1.4 7.9-4.3 8.8-10.1.6-3.3 1.8-5.3 5.6-9 6.8-6.5 8.5-6.4 7.6.4-.9 6.4-3.7 11.2-7.5 12.8-1.6.6-3.9 2.2-5.1 3.5-3.2 3.4-.7 3.8 10 1.5 10.3-2.2 12.1-3 14.9-6.6 2.4-3 2.6-8.8 1.1-22.9-.4-4.4-.5-8.4-.1-8.8.4-.4 1.9-.3 3.3.2 2.3.9 2.5 1.5 3 8.9.7 9.3 3.2 15.7 7.7 19.5 6.7 5.6 6 1.8-1.1-5.9-3.1-3.4-3.9-4.9-3.6-7.4l.3-3.2 3.9 2.7c2.1 1.4 4.1 2.4 4.3 2.1 1-1-2-7.9-5-11.2-3.7-4.3-8.4-6.8-16-8.5-6.4-1.4-10.1-4.6-7.1-6.2.8-.5 3.3-.6 5.5-.2l4 .7-3.3-4.5c-3.9-5.3-7.2-7.5-13.6-9-3.7-.9-4.8-1.7-5-3.5-.3-1.7.1-2.2 1.9-2.2h2.3l-2.5-2.8c-1.4-1.5-3.8-4.8-5.2-7.3-1.4-2.5-4.3-6.1-6.4-7.9-6.7-5.9-21.3-11.2-21.3-7.7zM107.4 56.5c-6.2 3.1-11.7 8.4-15.5 15-2.8 4.8-3.7 8.5-2.1 8.5 2.6-.1 5-1.4 4.5-2.6-1.2-3.2 7.5-12.8 15.4-16.8 4.1-2.1 6.3-2 6.3.1.1 1.6.2 1.6 1.5-.1.8-1.1 1.5-3 1.5-4.3 0-1.9-.5-2.3-3.3-2.3-1.8 0-5.6 1.1-8.3 2.5z"/><path d="M368 61.9c-7.4 1.5-12.1 6.2-14.5 14.3-2 7-1.9 9.4.7 11.2 5.5 3.9 11.8.5 14.2-7.7 1.7-5.5 3.3-7.8 8-11.5 4.3-3.3 4.9-2.9 4.4 3.8-.5 6.6-2.7 10.6-7 12.7-1.4.7-3.1 1.9-3.7 2.7-1 1.2-.5 1.6 3.6 2.1 9.3 1.2 11.8 2 12.9 4.3 1.1 2.2 1.1 2.2 1.8-1 .3-1.8.9-8.7 1.3-15.3.3-6.6 1-12.5 1.5-13.1.8-1.1-.7-1.4-15.7-2.8-2.2-.3-5.6-.1-7.5.3zM109.5 66.8c-6.7 4.5-12.2 9.8-11.2 10.8 1.1 1.2 8.4-1.5 11.7-4.2 3.3-2.8 6.3-7.9 5.8-9.5-.2-.6-3 .8-6.3 2.9zM87.6 85.3c-.3 1.2-.6 3.1-.6 4.2 0 1.8.1 1.8 1.6-.3 1.8-2.6 5.4-3 5.4-.6 0 .9-1.8 3.9-4.1 6.7l-4.1 5.2 3.7 3.3c3.3 3 4.2 3.4 7.8 2.9 6.6-.9 8.9-4.1 9.5-13 .4-7.2.4-7.5-1.9-8.3-1.3-.4-5.1-.8-8.4-.8-3.3-.1-6.5-.4-7.1-.8-.7-.5-1.4.1-1.8 1.5zM76.8 88.1c-4 5.5-7 10.9-6.1 10.9.5 0 3-.7 5.5-1.6l4.5-1.5-.4-4.7c-.7-6.9-.7-6.9-3.5-3.1zM67.4 107c-.3 1.9-1.3 4.6-2.1 5.8-1.4 2.2-1.3 2.3.4 1.9 1-.3 3.7-1.1 6.1-1.8 4.2-1.2 9.2-5.7 9.2-8.3 0-.9-1.9-1.3-6.5-1.2l-6.5.1-.6 3.5zM358.5 105.5c-17.9 2.8-20.1 3.3-21.5 5-1.9 2.3 3.8 2.7 13.4 1 11.2-1.9 16.6-2 16.6-.1 0 2.1-4.6 6.5-8.5 8.2-5 2-7.8 1.8-15.5-1.6-3.8-1.7-8.4-3-10.3-3-5.3 0-12.2 2.5-19.4 6.9-13.6 8.6-22.3 18-29.4 31.7-3.3 6.4-3.9 8.4-3.9 13.9 0 5.4.3 6.6 2 7.5 2.8 1.5 8.6-1.4 11.1-5.4 1.6-2.6 1.8-4.3 1.2-11.3-.5-7.6-.4-8.4 2.1-12.7 2.7-4.6 7.4-8.9 11.1-10 2-.6 2.1-.4 1.3 8-.9 8.9-3 14.4-6.8 17.9-2 1.8-5 6.6-5 8 0 1 4.1.5 6.8-.9 6.4-3.3 10.9-10.3 12.3-18.7 1-6 8.3-21.9 10.1-21.9 1.4 0 3.8 5.9 3.8 9.5 0 5-2.3 10.1-6.9 15-4.2 4.6-6.6 8.4-5.7 9.2.7.7 7.3-3.5 11.8-7.5 2-1.8 4.2-5 4.9-7 2.3-7.4 4.6-9.9 12.6-13.7 4.1-2 7.7-3.4 8-3.1.2.2-.1 2.2-.6 4.4-1.3 4.7-7.7 11-12.1 11.9-3.5.6-8 4.5-8 6.8 0 1.9 2.2 1.4 8-1.6 6.5-3.4 8.9-5.5 22.8-20 12.8-13.5 18.4-21 19.8-26.4.5-2.1.3-2.2-5.8-2.2-3.5 0-12.6 1-20.3 2.2zM102.9 116c-10.7.8-14.2 2.7-18.4 9.9-3 5.1-5.6 7.8-9.9 10.2-1.7 1-1.8.8-1.1-3.7 1-7 2-8.3 8.3-11.2 4.8-2.2 5.3-2.7 3.3-3-2.2-.3-5.2.2-15.3 2.9-3.4.9-3.8 1.3-3.8 4.3 0 4.5 2.6 11.5 5.3 14.5 2.6 2.9 12.5 7.5 26.2 12.5 9.9 3.5 14.5 3.8 14.5 1.1 0-1.7-5.5-5.1-9.8-6-5-1-8.6-5.4-10.6-12.9-1-3.7-1.6-6.9-1.3-7.2 1.3-1.4 7.1 1.1 10.6 4.4 2.8 2.8 4 4.8 4.5 8.1 1.1 7.1 10 13.9 16.8 12.9 2.1-.3 1.9-.7-2.4-4.6-2.5-2.4-5.3-6.1-6.1-8.1-1.6-3.8-2.5-14.6-1.5-15.7.9-.9 5.4 2.4 7.4 5.4 1.1 1.7 1.9 5.2 2.1 9.6.5 9.9 4.4 13.6 14.5 13.6 10.3 0 11.7-1.6 7.6-8.7-3.4-6-6.9-9.2-11.3-10.4-4.1-1.1-12.5-8.2-12.5-10.6 0-1.8 6.4-1.7 9.9.2 1.6.8 3.9 3.1 5.2 5.2 1.8 3 2.4 3.4 2.7 2 .6-3.1-.7-6.5-3.9-10.2-4.8-5.5-9.9-6.2-31-4.5zM463.5 144.8c-.5.5-8 3.7-16.6 7.1-17.1 6.8-19.9 8.3-19.9 11 0 1.9 6.1 7.4 14.2 12.9 3.1 2.2 5.8 3.2 8.3 3.2h3.7l-3-2.8c-3.8-3.6-5.5-9.4-4.1-14.4 2-7.4 6.4-8.6 14.9-4.3 5.2 2.6 7.5 3.2 6.5 1.5-.4-.6-1.2-4.2-1.8-8.1-.8-4.5-1.6-6.7-2.2-6.1zM44.2 146.5c-9.8 2.7-13.2 6.7-13.2 15.4v5l4.3-1.3 4.2-1.2-.3-7.2c-.2-5.8 0-7.3 1.3-7.8 2.4-.9 4.2 1.2 5.6 6.7 1.3 4.9 1.3 4.9 3.3 3 8.1-7.3 16.6-4.5 16.6 5.5 0 5.9-1.4 9.1-5.7 13-7.6 7 1.1 5.4 9.1-1.6 3.1-2.7 7.7-6.3 10.2-8 2.5-1.8 4.3-3.7 4.1-4.3-.4-1.3-16.8-12.5-22.9-15.7-5.1-2.7-10.4-3.2-16.6-1.5z"/><path d="M51.5 163.2c-1.1.6-2.1 1.2-2.3 1.4-.6.4 2.1 8.9 3.4 10.3 3 3.3 8.6-5.5 6.9-10.9-.7-2.3-4.7-2.6-8-.8zM40 166.5c0 1.3-4.4 4.8-7.4 5.8-.4.1.2 1.9 1.5 3.9 1.3 1.9 2.9 4.4 3.5 5.4 1 1.7 1.4 1.7 4 .6 1.6-.8 3.9-2 5.1-2.8l2.2-1.4-3.6-6c-3.8-6.5-5.3-8-5.3-5.5zM379.7 166.7c-.3.5 5.1 4.4 12 8.7 13.3 8.4 17.4 12.6 19.4 20 1.2 4.3.7 12.2-.8 13.7-.5.5-4.2-2.7-9.1-8.2-6.2-6.9-8.3-10-8.7-12.8-1.6-10.5-5.8-15.7-12-14.9l-2.7.3 2.6 3.5c9.5 13.2 10.7 18.4 5.6 26.4-1.7 2.6-3.6 4.6-4.3 4.4-2.6-.9-5-11-5.1-21.6-.1-9.1-.3-10.5-2.1-11.8-5.4-4-19.6-5-28.5-2-19 6.4-32.8 13.1-30.8 15.1.3.4 6.3-1.2 13.2-3.4 6.9-2.3 14-4.1 15.7-4.1 7.2 0 15.6 6.8 17.4 14.3l.7 2.5-5.9-1.4c-3.2-.8-7.1-1.4-8.8-1.4-1.6 0-5.2-1.4-8-3-5.7-3.4-11.7-3.9-15.4-1.4-3 2.2-1.8 3.2 5.4 4.5 7.7 1.4 13.8 4.9 15.8 9.1 2 4.3 3.1 10.1 2.2 12.6-.5 1.9-1.1 1.7-7.3-2.6-3.7-2.6-8.9-7.1-11.7-10-6.3-6.8-9.1-8.2-15.7-8.2-7.3 0-11.7 3.1-15.7 11.1-3.3 6.7-4.1 14.2-2 19.6 2.3 6 1.4 14.2-2.6 23.8-5.2 12.4-6.5 17.4-7.1 29-1.3 21.6 2.6 33.6 13.6 41.8 3.5 2.6 10.9 8.9 16.4 13.9 11.9 10.8 19.2 15.7 28.5 19.3 13.1 5 23.8 5.6 39.4 2.4 11.4-2.3 17.2-2.5 43.5-1.4l18.2.8v-5.7c0-3.1.7-7 1.4-8.5 1.6-3.1 8-9.1 9.7-9.1.6 0 .3-.7-.5-1.6-3.4-3.4-1.5-11.8 3.9-17.4l3.4-3.5-1.5-4.3c-2.1-6.4-.5-11.5 5.6-17.2l4.8-4.6-2.3-2c-6.5-5.8-8.7-28.8-3.9-41.9 4-11.2 4-11.1 0-15.5-4.4-4.9-5-7.3-4.3-15.9l.7-6.6-3.3-2.3c-1.8-1.2-3.7-2.2-4.2-2.2-.4 0-.4 3 .1 6.7 1.6 12.9 1.1 18.7-1.9 23-1.4 2.1-4.1 4.7-5.8 5.7l-3.2 1.9.6-9.4c.6-7.3 1.3-10.7 3.7-15.7 4.5-9.6 4-12.4-3.5-20.3-6.2-6.5-18.7-14-20-12-.6 1 1.9 4.4 8.9 12.1 6.4 7.1 7.9 10.9 7.4 18.2-.2 3.2-.7 6.1-1.1 6.4-.7.8-11.3-10.3-13.4-14-.7-1.2-1.2-5.1-1.3-8.7 0-5.2-.5-7.3-2.3-10-3.4-5-10.1-9.6-17.3-11.9-7.2-2.2-24.8-3.8-25.7-2.3zM128 168.9c-16.1 2.5-20.7 5.3-23.1 14.5-.6 2.2-1.8 5.7-2.6 7.6-1.6 3.8-11.1 16-12.4 16-3.4 0-3.9-12.3-.8-18.7 2.3-4.7 3.6-5.9 15.1-13.5 4.3-2.8 7.5-5.4 7.2-5.9-1.9-3.1-17.9 1-27.3 7.1-11.9 7.6-15.8 15.6-12.8 26.2.9 2.9 1.8 8.7 2.2 12.8.3 4.1.8 8.5 1.1 9.7 1.2 5.9-9.5-1-12.7-8.1-2.6-5.7-2.4-7 2.1-16.6 2.3-4.9 3.6-8.8 3.1-9.3-.8-.8-16.1 9.8-17.5 12.1-.3.5-.1 2.6.5 4.6 1.6 5.8.3 10.9-4.2 16-2.1 2.4-3.9 4.8-3.9 5.2 0 .4 1.1 3.5 2.5 6.9 5.4 13.6 5.4 28.2-.1 42.1-3 7.5-3 7.5.2 10.5 4.5 4.1 6.7 10.2 5.9 16.8-.5 4.7-.3 6 1 7.1 3.3 2.7 5.5 8.7 5.5 14.8 0 5.4.3 6.1 3.5 9 4.6 4.2 5.1 6.9 3.5 18.2-2.5 18.4-2.7 16.4 2.2 18.6 5.5 2.4 12.4 8.7 14.9 13.6 1.1 2.1 2.2 5.9 2.6 8.5.8 6.6 1.9 8.3 5.1 8.3 5.2 0 5.7-1.1 3.3-8.3-4.2-12.4-11.1-21.8-20.8-28.3-5.4-3.6-6.3-5.6-4-8.8 1.1-1.5 3.1-1.8 12.8-2 6.2-.2 14.6-.8 18.4-1.5 7.8-1.3 13.8-.9 29.5 2.1 7.7 1.5 13 1.9 20 1.5 10.6-.5 14.7-1.9 37.5-12.7 15.3-7.2 19.6-11.1 26.4-24.1 2.4-4.6 7.1-11.8 10.4-15.9 8.7-10.9 10.5-15.6 14.7-40.2 1.5-8.6 1.7-12 .9-17.9-2-13.8-5.5-20.4-18.4-34.5-12.4-13.6-15.9-14.9-22.2-8.5-2.1 2.1-4.8 4.3-5.9 4.9-2.7 1.4-15.6 4.1-16.6 3.5-1.4-.8 4.1-10.2 7.5-12.7 4.3-3.3 7.7-3.9 15.4-2.8 7.9 1.1 9.6.2 6.3-3.3-3.7-4-9.3-6.5-14.5-6.5-6 0-9.4 1.9-12.5 6.9-2.5 4.2-6.9 7.7-12.7 10-1.8.7-3.8 1.9-4.4 2.7-.6.8-1.8 1.4-2.7 1.4-2.3 0-1-8 2.2-13.4 3.3-5.7 8.5-8.6 15.8-8.7 6.6-.1 13.3-2 13.3-3.8 0-1.4-10.8-6.4-22.2-10.2-8-2.7-14.3-2-18.4 2.1-2.7 2.6-2.8 3.3-2.7 10.7.1 8.1-1.7 13.9-5.6 18.8-1.6 2-1.6 2-3.1.1-1.8-2.4-2.9-9.6-2.1-14.1.4-1.9 2.5-5.5 4.6-8.1 5.5-6.3 5.2-8.1-1-4.9-4.6 2.4-7.1 6.8-8.1 14.8-1.1 7.7-8.9 26.1-11.6 27.1-3.8 1.5-5.8-15.6-2.8-23.1 1.1-2.7 4.5-6.3 11.7-12.3 5.6-4.7 12-10.2 14.2-12.2l4.1-3.7h-3c-1.6.1-8.2.9-14.5 1.8zM483.1 175.3c-1.8 2.3-4.2 8.9-3.7 10.3.7 1.7 8.4 5.7 9.6 4.9 1.7-1 1.1-6.3-1.1-11-2.5-5.3-3.3-6-4.8-4.2zM24.6 176.9c-3.3 3.6-4.9 14.1-2.2 14.1 1.4 0 10.6-3.8 10.6-4.5 0-.2-1-2.8-2.1-5.9-2.3-6-3.6-6.7-6.3-3.7zM459 183.9c-1.6 3.1-1.2 4.5 2 7.6 1.7 1.6 3 3.7 3 4.7 0 2.6 1.1 2.1 5.2-2.6l3.8-4.3-5-2.7c-2.7-1.5-5.2-3.1-5.5-3.6-1-1.6-2.3-1.2-3.5.9zM47 184.7c-5.5 2.3-6.2 3.8-3.9 8.6 2 4.6 2.6 4.7 6.9 1.5 3.4-2.5 5.4-6.8 4.5-9.7-.7-2.4-2.6-2.5-7.5-.4zM29.1 194l-4.4 3.8 3.2 5.1 3.3 5 5.9-4.2c4.4-3 5.5-4.3 4.4-4.7-.9-.3-2.6-2.3-3.8-4.5-1.2-2.1-2.6-4-3.2-4.1-.5-.2-3 1.4-5.4 3.6zM472.1 196.2c-1.2 2.8-2 5.2-1.9 5.2 4.7 2.2 7.7 3.9 9.5 5.1 2.1 1.6 2.2 1.5 4.1-3.7 1.1-2.9 1.8-5.6 1.5-6.1-.4-.7-9.7-5.7-10.6-5.7-.3 0-1.4 2.3-2.6 5.2zM488.2 204.1l-4.3 6.1 3.7 5.4c2.1 3 4.1 5.4 4.6 5.4 1.5 0 4.8-6.4 4.8-9.3 0-1.5-.7-4.4-1.5-6.4-.8-1.9-1.5-4.4-1.5-5.4 0-3.1-1.2-2.2-5.8 4.2zM17.7 201.8c-4.1 4.6-4 17.2.2 17.2 2.4 0 7.1-5.1 7.1-7.8 0-2.4-3.3-9.7-4.9-10.6-.4-.3-1.5.2-2.4 1.2zM467 206.9c-1.9 3.7-1.2 9.7 1.6 13 1.4 1.7 2.9 3.1 3.4 3.1.4 0 2.1-2.1 3.8-4.7l3-4.6-4.6-4.3c-2.6-2.4-5-4.3-5.4-4.4-.4 0-1.2.9-1.8 1.9zM38.7 208.7c-2.6 1.5-4.7 3.3-4.7 4 0 1.9 3.9 9.3 4.8 9.3 1.7 0 6-5.6 6.6-8.5.3-1.7 0-4-.7-5.2l-1.2-2.2-4.8 2.6zM479.1 221.6c-1.1 3.1-2.1 5.7-2.1 5.9 0 .5 7 4.5 7.9 4.5.8 0 5.1-7.3 5.1-8.7 0-.5-2-2.4-4.4-4.1l-4.3-3.1-2.2 5.5zM23.1 222.2l-3.1 4.2 3.7 3.8c2 2.1 4 3.8 4.3 3.8.4 0 1.9-1.9 3.4-4.3l2.8-4.2-1.8-3.5c-2.7-5.1-5.5-5-9.3.2zM15.8 230.7c-2.8 3.2-6.5 11.6-7.8 17.8-2 9.6.4 22.3 5.7 30.7 2.7 4.3 3.6 4.6 6 1.8 1-1.1 2.3-2 3-2 .7 0-.5-2.5-2.7-5.7-7.2-10.2-7.8-17.5-2.5-29.3 4-8.9 4.2-10 1.7-13-1.7-2.1-1.8-2.1-3.4-.3zM490.6 231.9l-2.8 2.9 2.5 3.4c7.1 9.3 8.6 19.6 4.2 28.5-1.4 2.8-3.4 5.8-4.5 6.8-1.9 1.8-2 1.7-2-.8 0-1.4.9-4.6 2-7.2 1.1-2.6 2-6.7 2-9.1 0-4.8-3-12.2-6-14.9-1.8-1.6-2-1.5-3.5 2.1-4 9.5-3.6 19.9 1.3 26.8 1.5 2.1 4.2 6.1 5.9 8.8 1.8 2.6 3.5 4.8 3.8 4.8.3 0 2-2.4 3.9-5.3 6.2-9.3 8.1-21.6 5.1-33.2-1.6-6.1-6.4-15.6-8.1-16.2-.6-.2-2.3 1-3.8 2.6z"/><path d="M471.9 236.5c-5.3 11.2-5.5 21.4-.9 37.5 1.2 4.1 2.3 7.6 2.4 7.8.4.4 7.6-3.8 7.6-4.4 0-.3-1.2-2.8-2.7-5.7-5-9.8-3.9-28 1.9-32.1 2-1.5 2-1.5-1.2-5.5-1.7-2.3-3.4-4.1-3.6-4.1-.3 0-1.9 2.9-3.5 6.5zM32.3 234.6l-2.1 1.5 3.1 6.7c4.4 9.2 4.4 17.9.3 27l-2.9 6.3 2 2.6c1 1.5 2.4 2.8 3 3 1.6.6 6.3-11 7.4-18.2 1.2-7.4 0-17.4-2.9-25.2-1.9-5.3-4.2-6.3-7.9-3.7z"/><path d="M21.5 248.1l-3.6 7.6 2.5 6.8c1.3 3.7 3.2 7.5 4 8.3 1.4 1.5 1.7 1.4 3-.3.8-1.1 2.2-4.5 3-7.6 1.4-5 1.4-6 .1-10.5-.9-2.7-2.4-6.5-3.4-8.4l-1.9-3.5-3.7 7.6zM479.7 283.8c-2 2.1-3.7 4.1-3.7 4.5 0 .9 6.1 7.7 6.9 7.7.4 0 2.3-2 4.4-4.4l3.7-4.4-3.6-3.6c-2-2-3.7-3.6-3.8-3.6-.1 0-1.9 1.7-3.9 3.8zM23.2 284.5c-1.7 2.7-2 4-1.2 5.4 1.4 2.6 6 6.2 7.1 5.5 1.1-.6 4.9-7.9 4.9-9.2 0-.7-7.1-5.2-8.1-5.2-.2 0-1.4 1.6-2.7 3.5zM469.5 292c-2.4 2.5-3 4.1-3.3 9-.3 4.1-.1 6 .7 6 2.4 0 11.3-5.2 10.8-6.3-.3-.7-1.3-3.2-2.2-5.7-2.5-6.3-2.7-6.4-6-3zM36 294.2c-3.3 5.5-2.4 7.6 4.8 11.2 3.2 1.6 3.2 1.6 4.2-.9 1.4-3.7 1.3-4.3-1.5-9.2-3.1-5.1-4.9-5.4-7.5-1.1zM489.2 296.9c-2.3 2.1-4.2 4.4-4.2 5 0 .7 1.3 3.4 2.8 6.1l2.9 5 2.6-2.8c1.5-1.5 2.9-4.1 3.3-5.8.6-3.1-1.1-11.4-2.4-11.4-.4 0-2.6 1.7-5 3.9zM15.4 297.7c-1.4 3.1-1.4 4.3-.3 7.6.7 2.2 2.1 4.9 3 6.1 1.6 2 1.7 2 4.8-2.9 1.7-2.7 3.1-5.3 3.1-5.7 0-1.2-7.1-8.8-8.2-8.8-.5 0-1.6 1.7-2.4 3.7zM472.8 308.8c-4.9 3.8-5.8 5.2-3.4 5.2.7 0 2.5 1.8 4 4 1.4 2.2 3.2 4 4 4 .7 0 3.5-1.6 6.1-3.6l4.7-3.7-2.5-2.1c-1.4-1.1-3.3-3.3-4.2-4.9-1-1.5-2.2-2.7-2.9-2.6-.6 0-3.2 1.7-5.8 3.7zM27.6 310.7c-1.5 2.6-2.5 5.2-2.2 5.8.2.6 2.4 2.2 4.9 3.5 3.9 2.1 4.7 2.2 6.2 1 2.9-2.4 4.7-6.8 3.5-8.9-1-2-7-6.1-8.8-6.1-.6 0-2.2 2.1-3.6 4.7zM43.7 318.4c-1.5 2.4-2.7 4.8-2.7 5.4 0 .6 2.1 2.3 4.6 3.8 4.5 2.7 4.7 2.7 6 .9 1.5-2 1.2-3.8-1.3-9.2-2.5-5.5-3.6-5.6-6.6-.9zM462.1 317.1c-1.8 1.9-4.9 12.5-3.9 13.4.8.7 11.8-4.9 11.8-6.1 0-2.7-3.3-9.4-4.6-9.4-.7 0-2.2 1-3.3 2.1zM21.5 323c-.7 1.2.2 7.5 1.4 9.8.5 1 1.8 2.5 2.8 3.5 1.9 1.7 2.1 1.6 4.6-3.2 1.5-2.7 2.7-5.1 2.7-5.4 0-.6-8.9-5.7-10.1-5.7-.4 0-1.1.5-1.4 1zM482.8 324.4c-4.4 2.4-4.5 3.5-1.4 9.6l2.4 4.4 3.1-4.9c3.6-5.6 4.3-11.6 1.4-11.4-1 .1-3.5 1.1-5.5 2.3zM469.5 330.7c-7.3 3.7-8.4 7.6-3.6 12.4 3.1 3.1 3.9 3.1 9.8-.4 3.2-1.9 3.2-1.9 1.7-4.9-4.4-8.5-4.7-8.7-7.9-7.1zM37.3 331.3c-2.2 2.8-6.3 16.2-6.3 20.4 0 4.1.4 5 4.9 9.3l4.9 4.8 1.7-6.5c.8-3.6 1.5-6.7 1.3-6.8-.2-.1-1.9-1-3.8-2-3.9-1.9-7-4.4-7-5.5 0-.4.9-1 2-1.3 2-.5 21.9 8.5 23.1 10.5.9 1.5 1.8-5.8 1.2-9.7-.3-1.9-1.4-4.2-2.5-5.2-1.9-1.7-2-1.7-3.9.7-1 1.4-1.9 3-1.9 3.7 0 .7-.9 1.7-2 2.3-2.7 1.5-3.7-1.1-2.2-5.4 1.5-4.2 1.5-6.3 0-6.9-.7-.3-2.9-1.2-5-2.1-2.8-1.2-3.8-1.3-4.5-.3zM453.2 341.4c-3 3.5-5 10.2-3.4 11.8.5.5 2.4.2 4.5-.7 4.9-2 6.7-1.9 6.7.5 0 1.3-1.4 2.7-4.1 4.1-3.8 1.9-4.1 2.3-3.5 5.2 1 4.7 2.8 6.1 7.1 5.3 2-.4 3.9-1.4 4.2-2.3 1.2-3.2-5.6-27.3-7.8-27.3-.4 0-2 1.5-3.7 3.4zM474.1 348.4c-4.7 1.7-5.5 3.3-4.7 9.9l.7 5.7 2.7-1.4c5-2.6 9.8-10.2 8.7-13.6-.7-2.3-2.5-2.4-7.4-.6zM216.5 356.4c-30.5 12.9-42 21.3-48.8 35.5-7.5 15.8-3 36.1 11.7 53.1 5.3 6.1 6.6 7 6.6 4.6 0-.8 1.7-2.9 3.8-4.6 2-1.7 2.9-2.8 2-2.5-2.8 1.1-5.2-1-10.6-9-10.1-14.9-10.9-28.7-2.5-40.4 4.3-6 12.7-11.6 26.8-17.8 19.6-8.6 22.4-11 24-19.6.9-4.8 0-4.8-13 .7zM282.3 353.5c-.9 2.6 2.7 10.3 6.3 13.3 1.8 1.5 5.7 3.6 8.6 4.6 10.3 3.6 25.4 11.4 30 15.5 2.7 2.4 5.9 6.7 7.7 10.3 2.7 5.3 3.1 7.2 3.1 13.7-.1 4.2-.7 9.3-1.4 11.4-3.9 10.7-14.3 22.8-28.4 33-8.5 6.1-12.3 7.1-14.4 3.7-.7-1.1-1.7-2-2.3-2-.6 0-3.7 2.7-7 6s-6.7 6-7.7 6c-3.6 0-2.5 1.9 3.8 6.4 4.4 3.1 6.4 5.2 6 6.2-.7 1.9-.5 1.9 6.1-2 7.8-4.6 14.6-9.8 23.1-17.7 7.1-6.6 7.1-6.6 5.1-8.5-2.6-2.4-2.1-5.8 1-6.2 1.5-.3 3.3.6 5.2 2.4l2.9 2.8v-2.8c0-1.9 1.8-5.3 5-9.6 6-8 10.3-17.3 12-25.4 4.1-19.8-9.7-39.3-36.4-51.6-8.6-3.9-25.9-11-27-11-.4 0-.9.7-1.3 1.5zM414 362.9c-4.3.9-7 2.3-9.4 5-1.9 2.1-1.9 2.1 1.2 2.1 3.6 0 5.9 2.7 7.2 8.5 3.2 14-10.5 13.7-15.6-.3-2.5-6.8-3.3-7.4-7.1-5.5-1.8.8-5.1 3.5-7.3 5.9-4.9 5.3-5.4 10.1-1.6 13.9 2.4 2.4 7.2 4.2 8.3 3.2.8-.9-1.4-5.9-4.3-9.8-3.1-4.2-3-4.9.5-4.9s7.5 4.3 9.2 10c2.3 7.5-1.2 11.7-8.3 10.3-11.4-2.1-16.9-11.5-13.4-22.8.9-2.8 1.6-5.7 1.6-6.6 0-2.6-4.5-3.7-17.2-4.3l-11.8-.5 1.3 3.2c1.8 4.5 7.5 7.1 15.4 7.2 8.7 0 9.8 1.6 3.8 5.4-2.7 1.7-5.7 3.3-6.7 3.7-2.4.7-3.3 4.8-1.8 8.5 3.4 8 14.4 11.4 35.1 10.6 18.3-.6 18.6-.8 21.5-12.3 2.3-9.7 5.9-17.7 10.5-23.5 3.9-5 3.8-6.9-.3-6.9-1.8 0-4.2-.2-5.3-.4-1.1-.2-3.6-.1-5.5.3z"/><path d="M252.7 370.9c-4.8 4.3-13 16.5-15.5 23.4-4.3 11.4-4.6 26-.7 35.3 1.9 4.5 16.8 27.4 17.9 27.4.4 0 3.4-2.7 6.6-6 3.7-3.9 6.6-6 8.1-6 1.8 0 1.2-.7-3.1-3.8-2.9-2-6-4.7-6.8-6-1.4-2.1-1.3-2.2 1.2-2.2 1.5 0 4.4.9 6.6 2 2.2 1.1 4.3 2 4.7 2 1.1 0 5.3-16.1 5.9-23 1.3-12.5-5.3-28-17.8-42.4l-3.4-3.9-3.7 3.2zm6.8 17.2c4.7 5.6 6.8 11 7.3 18.5.7 11.6-3.2 19.9-13.5 28.4-5.8 4.8-7.9 5.8-9.5 4.2-.8-.8 1.1-3.2 6-7.7 11.7-11 14.2-19.7 8.7-30.5l-2.7-5.4-2.6 4.9c-3.1 6-3.3 11.8-.8 19.3 3 8.8-1.4 9.8-5.5 1.4-3.4-7-3.2-17.8.3-25.2 2.5-5.4 7-11 8.8-11 .4 0 2 1.4 3.5 3.1zM105.6 374.6c-2.5 3.7-3.5 8.4-1.8 8.4 2.2 0 5.2-3.5 5.8-6.6 1-5.5-.9-6.3-4-1.8zM402 374.7c0 4.7 4.1 9.6 6.3 7.4.9-.9.6-2.2-1.5-5.9-3.4-6-4.8-6.4-4.8-1.5zM60 379.9c0 7.7 5 15.5 12.2 19.2 5.5 2.8 7.2 2 6.5-3.2-1-7.7-9.3-17.8-15.9-19.4-2.7-.7-2.8-.6-2.8 3.4zM201.3 391.4c-7.6 2.9-12.5 6.5-16.1 11.9-2.3 3.5-2.7 5.1-2.7 11.1 0 6.7.4 7.7 5.3 16.8 2.9 5.4 5.6 9.8 5.9 9.8.7 0 7.3-4 7.3-4.4 0-.2-1.6-3.4-3.6-7.2-3.4-6.4-3.6-7.4-3.1-13.6.4-7 3.9-14.2 7.3-15.5 3.6-1.4 9.6 7.9 10.9 16.9.9 6.2-1.1 14.9-3.6 15.5-1.5.4-1.1 1.4 3.1 6.4 2.7 3.3 5.5 7 6.1 8.2.7 1.2 1.3 2.4 1.5 2.6.2.2 3.1-1.3 6.5-3.4 5.2-3.2 6.5-3.6 8-2.6 1.1.6 1.9.9 1.9.7 0-.2-2.1-3.4-4.6-7.2-8.3-12.3-12.4-21.8-16.4-37.4-3.1-12.3-3.4-12.5-13.7-8.6zM299.1 391.1c-.6 1.3-1.7 5.4-2.6 9.1-2.8 12.9-13.4 35.8-18.1 39.2-1.4 1.1-1.1 1.5 2.5 3.9 2.2 1.5 4.8 3.9 5.7 5.3l1.7 2.5 6.8-6.7c4.3-4.2 7.3-6.5 8.2-6.1 1 .4.4-1.5-1.7-5.5-4.2-8.2-4.3-16.8-.4-24.3 5.1-9.7 8.7-10.6 13.6-3.2 2.4 3.5 2.7 5.1 2.7 11.8 0 7.1-.3 8.1-3.2 12.3-3.7 5.2-4 6.8-1.8 8.6.8.7 1.5 2.2 1.5 3.4.1 1.7.8 1.3 4.6-2.8 8.7-9.5 12.5-21.8 9.4-31.1-2.6-8-14.1-16.5-24.5-18.2-2.9-.5-3.6-.2-4.4 1.8zM85.3 407.7c-1.7.6-1.7 4.4 0 6.7 3 4.1 10-1.1 7.6-5.6-.9-1.7-4.8-2.3-7.6-1.1z"/><path d="M200.9 410.6c-.8 1-1.4 4-1.4 7.4 0 4.7.5 6.4 2.9 9.9 2.8 4 3 4.1 3.8 2.1 1.1-3.1-.7-17.9-2.4-19.7-1.3-1.2-1.7-1.2-2.9.3zM306.5 411.6c-1 1.5-2 4.7-2.3 7-.5 4.4 1.3 11.4 2.9 11.4.6 0 2.1-2.5 3.5-5.6 2.3-5.2 2.4-5.9 1.2-10.2-1.6-5.5-2.9-6.2-5.3-2.6zM104.1 425.6c-1.4 1.8-2.1 4.1-2 6.8 0 3.7.1 3.9 1.1 1.8.6-1.2 1.5-2.2 2-2.2 1.6 0 5.8-5.2 5.8-7.1 0-2.9-4.5-2.4-6.9.7zM135.9 433.3c-6.1 4.1-10.8 13.8-9.4 19.5l.6 2.5 1.5-2.1c.8-1.2 3.4-3 5.8-4 6.5-2.9 12.2-11.3 10.9-16.1-.7-2.8-5-2.8-9.4.2zM202.4 439.7c.5 1.5.1 2.8-1.3 4.2-1.2 1.2-2.1 2.3-2.1 2.4 0 .6 13.8 8.7 14.7 8.7.4 0 1.9-.9 3.3-2 2.3-1.8 2.3-2 .5-2-1.1 0-5-3-8.8-6.8-4.6-4.4-6.7-6-6.3-4.5zM303.2 443.2c-1.1 1.8-3.4 4.6-5.1 6.2-3.8 3.7-3.9 4.6-.2 4.6 1.9 0 4.7-1.5 8.5-4.6 3.1-2.6 5.6-5 5.6-5.4 0-.4-1.2-1.3-2.7-2.1-1.6-.7-3.1-1.5-3.4-1.7-.4-.1-1.6 1.2-2.7 3z"/><path d="M192.7 450.4l-4.8 3.3 4.3 4.4c4.7 4.8 25.2 21.7 27.2 22.5 1.4.5 16.6-6.2 16.6-7.3 0-.3-2.9-3.7-6.5-7.4-3.6-3.8-6.5-7.4-6.5-8 0-.5-2.1.2-4.6 1.7-5.4 3.2-6.4 2.9-15.6-4.3-4.4-3.5-5.7-5.1-5.2-6.5.7-2.3.8-2.3-4.9 1.6zM190.5 483.3c-.4.8-.5 2.6-.3 3.9.2 1.9 1 2.4 4.1 2.6 2 .2 3.7-.1 3.7-.5 0-.5-1.6-2.4-3.5-4.3-2.8-2.7-3.5-3-4-1.7z"/></svg>