<?xml version="1.0" encoding="UTF-8" standalone="no"?>
<svg
   xmlns:dc="http://purl.org/dc/elements/1.1/"
   xmlns:cc="http://creativecommons.org/ns#"
   xmlns:rdf="http://www.w3.org/1999/02/22-rdf-syntax-ns#"
   xmlns:svg="http://www.w3.org/2000/svg"
   xmlns="http://www.w3.org/2000/svg"
   xmlns:sodipodi="http://sodipodi.sourceforge.net/DTD/sodipodi-0.dtd"
   xmlns:inkscape="http://www.inkscape.org/namespaces/inkscape"
   id="svg2"
   viewBox="0 0 2511.8866 1765.5845"
   height="1765.6"
   width="2511.9"
   version="1.1"
   inkscape:version="0.91 r13725"
   sodipodi:docname="Oceanic-oceanic_destructive_plate_boundary.svg">
  <metadata
     id="metadata4438">
    <rdf:RDF>
      <cc:Work
         rdf:about="">
        <dc:format>image/svg+xml</dc:format>
        <dc:type
           rdf:resource="http://purl.org/dc/dcmitype/StillImage" />
      </cc:Work>
    </rdf:RDF>
  </metadata>
  <sodipodi:namedview
     pagecolor="#ffffff"
     bordercolor="#666666"
     borderopacity="1"
     objecttolerance="10"
     gridtolerance="10"
     guidetolerance="10"
     inkscape:pageopacity="0"
     inkscape:pageshadow="2"
     inkscape:window-width="1440"
     inkscape:window-height="790"
     id="namedview4436"
     showgrid="false"
     inkscape:zoom="0.33303214"
     inkscape:cx="1255.9736"
     inkscape:cy="882.79227"
     inkscape:window-x="0"
     inkscape:window-y="1"
     inkscape:window-maximized="1"
     inkscape:current-layer="svg2" />
  <defs
     id="defs4">
    <linearGradient
       id="linearGradient4235"
       y2="469.99"
       gradientUnits="userSpaceOnUse"
       x2="1903.9"
       y1="288.58"
       x1="1751.7"
       gradientTransform="translate(-70.866,800.79)">
      <stop
         id="stop4227"
         stop-color="#a05a2c"
         offset="0" />
      <stop
         id="stop4229"
         stop-color="#a05a2c"
         stop-opacity="0"
         offset="1" />
    </linearGradient>
  </defs>
  <path
     style="fill:#b66836;fill-rule:evenodd"
     inkscape:connector-curvature="0"
     d="M 2511.934,407.25 2009.534,258.66 0.034,613 502.374,761.58 Z"
     id="path3364" />
  <path
     style="fill:#aade87;fill-rule:evenodd"
     inkscape:connector-curvature="0"
     d="m 2395.734,331.7 -505.18,-88.284 112.94,-24.185 508.36,92.62 z"
     id="path4738" />
  <path
     style="fill:#ffe680;fill-rule:evenodd"
     inkscape:connector-curvature="0"
     d="m 2395.734,331.54 -505.18,-88.088 -18.407,3.1234 -29.59,41.136 503.45,88.336 3.3586,-0.73407 46.39,-42.313 z"
     id="path4740" />
  <path
     style="fill:#55ddff;fill-opacity:0.8;fill-rule:evenodd"
     inkscape:connector-curvature="0"
     d="m 1004.734,613 -502.38,88.583 0,-35.433 1893.4,-334.61 -49.659,44.815 -1114.4,215.57 -58.117,66.323 z"
     id="path4570" />
  <path
     style="fill:#ff6600;fill-rule:evenodd"
     inkscape:connector-curvature="0"
     d="m 502.374,935.58 2009.5,-276.33 0,828.99 -2009.5,276.33 z"
     id="path3356" />
  <path
     style="fill:#ff7f2a;fill-rule:evenodd"
     inkscape:connector-curvature="0"
     d="m 0,614.01 502.38,88.583 0,1063 L 0,1677.01 Z"
     id="path3360" />
  <path
     style="fill:#c87137;fill-rule:evenodd"
     inkscape:connector-curvature="0"
     d="m 0,1012.49 502.38,88.583 0,-399.5 L 0,612.99 Z"
     id="path3366" />
  <path
     style="fill:none"
     inkscape:connector-curvature="0"
     d="M 2511.934,347.25 502.334,701.58"
     id="path4189" />
  <path
     style="fill:#d5f6ff;fill-opacity:0.9;fill-rule:evenodd"
     inkscape:connector-curvature="0"
     d="m 0,577.56 0,35.433 502.38,88.583 0,-35.433 z"
     id="path4211" />
  <path
     style="fill:#aaeeff;fill-opacity:0.8;fill-rule:evenodd"
     inkscape:connector-curvature="0"
     d="m 0.268,577.57 501.91,88.66 1893.6,-334.69 -505.1,-88.14 z"
     id="path4574" />
  <path
     style="fill:#d45500;fill-rule:evenodd"
     inkscape:connector-curvature="0"
     d="m 1811.334,1207.82 -5.4661,11.513 c 207.24,142.42 154.9,-21.986 161.02,-265.49 l 16.898,-1.6093 -30.175,-39.026 -22.933,44.659 20.921,-3.2187 c -3.0972,243.21 42.628,393.98 -140.26,253.17 z"
     id="path4256" />
  <path
     style="fill:#894d26;fill-rule:evenodd"
     inkscape:connector-curvature="0"
     d="m 2347.834,376.62 47.896,-43.594 -0.012,-1.4855 116.17,-19.725 0,41.933 z"
     id="path4176" />
  <path
     style="fill:#808080;fill-rule:evenodd"
     inkscape:connector-curvature="0"
     d="m 1946.634,397.15 -46.492,57.806 25.279,-1.7678 z"
     id="path4192" />
  <path
     style="fill:#ac9d93;fill-rule:evenodd"
     inkscape:connector-curvature="0"
     d="m 1916.234,452.58 30.446,-55.195 6.8899,0.78267 30.13,42.446 z"
     id="path4187" />
  <path
     style="fill:#894d26;fill-rule:evenodd"
     inkscape:connector-curvature="0"
     d="m 2511.934,347.25 0,397.5 -841.07,149.5 c -259.45,-162.03 -226.02,-213.7 -532.48,-257.91 76.479,-13.485 23.263,-50.99 106.35,-65.64 401.91,-70.868 867.69,-153 1267.2,-223.44 z"
     id="path3374" />
  <g
     style="fill:#ff6600;fill-rule:evenodd"
     transform="matrix(1,0,0,1.0619,-68.866,803.4109)"
     id="g4183">
    <path
       inkscape:connector-curvature="0"
       d="m 2018.3,-321.05 c -3.8031,0.47155 -7.6388,1.694 -11.236,3.3744 -4.0078,1.8721 -9.0501,3.4362 -11.236,7.3369 -2.0444,3.6478 -2.0444,8.7466 0,11.887 2.1861,3.3585 7.2284,3.6722 11.236,4.5505 3.5973,0.78833 7.433,1.0596 11.236,0.58808 3.8032,-0.47156 7.6389,-1.694 11.236,-3.3744 4.0078,-1.8721 9.0501,-3.4362 11.236,-7.3369 2.0444,-3.6478 2.0444,-8.7466 0,-11.887 -2.1861,-3.3586 -7.2284,-3.6722 -11.236,-4.5505 -3.5973,-0.78833 -7.433,-1.0596 -11.236,-0.58806 z"
       id="path5115" />
    <path
       inkscape:connector-curvature="0"
       d="m 2022.5,-381.64 0.05,30.584 1.4096,397.06 -11.031,-2.2641 2.7347,-426.12 z"
       id="path5117" />
  </g>
  <g
     style="fill-rule:evenodd"
     transform="translate(-73.9787,800.13315)"
     id="g4298">
    <path
       style="fill:#808080"
       inkscape:connector-curvature="0"
       d="m 1732.3,-511.3 -83.473,104.51 29.224,-5.2413 z"
       id="path4221" />
    <g
       transform="matrix(1.7969,0,0,1.7969,-1565.5,338.51)"
       id="g4286">
      <path
         style="fill:#b3b3b3"
         inkscape:connector-curvature="0"
         d="m 1835.5,-472.91 c 0,0 -5.939,-15.119 -11.269,-21.015 -6.9004,-7.6333 -17.493,-10.914 -25.599,-17.252 -20.177,-15.775 -50.194,-26.798 -57.042,-51.477 -6.2214,-22.42 0.9402,-53.894 20.312,-66.781 16.767,-11.154 40.224,2.9032 60.103,6.1216 23.546,3.8122 54.423,-2.6171 69.842,15.582 6.6051,7.796 4.5727,20.811 1.6695,30.608 -4.1114,13.874 -15.69,24.515 -25.599,35.06 -4.3751,4.656 -11.085,7.0081 -14.747,12.243 -3.1617,4.5192 -4.2417,10.228 -5.5651,15.582 -3.3967,13.742 -5.9938,42.043 -5.9938,42.043 z"
         id="path4280" />
      <path
         style="fill:#9e9e9e"
         inkscape:connector-curvature="0"
         d="m 1836.8,-468.33 c 0,-1.6695 -1.6051,-9.4245 -3.4782,-13.774 -3.9338,-9.1338 -9.6536,-17.525 -16,-25.182 -6.4065,-7.7302 -14.608,-13.777 -21.982,-20.591 -7.2815,-6.728 -14.865,-13.132 -21.982,-20.034 -6.0273,-5.845 -14.378,-10.305 -17.53,-18.086 -2.4029,-5.9316 -1.3143,-12.936 0,-19.199 1.7059,-8.1292 3.3288,-17.891 10.017,-22.817 4.6598,-3.4317 11.466,-2.0907 17.252,-1.9478 9.2071,0.22751 18.118,3.4137 27.269,4.452 10.066,1.1422 20.261,0.82939 30.33,1.9478 9.4268,1.0471 19.653,0.14597 28.104,4.4521 5.0255,2.5607 10.848,6.4362 11.965,11.965 1.0705,5.3013 -3.3294,10.394 -6.1216,15.026 -4.4698,7.4142 -11.897,12.689 -16.695,19.895 -6.5814,9.8838 -13.574,20.105 -16.347,31.651 -4.1736,17.372 0.2783,53.599 0.2783,53.599 z"
         id="path4282" />
      <path
         style="fill:#cccccc"
         inkscape:connector-curvature="0"
         d="m 1838,-466.59 c 0,0 -0.4699,-12.556 -2.4347,-18.434 -3.4098,-10.202 -10.565,-18.741 -15.86,-28.104 -4.1205,-7.2849 -6.9705,-15.459 -12.382,-21.843 -7.6759,-9.0553 -18.952,-14.36 -27.686,-22.399 -5.3817,-4.9538 -13.354,-8.7736 -15.165,-15.86 -1.4147,-5.5369 1.2751,-11.806 4.452,-16.556 2.7948,-4.179 7.0305,-8.2196 11.965,-9.1824 8.2158,-1.6031 15.95,5.3097 24.208,6.6781 10.816,1.7923 22.116,-0.36008 32.834,1.9478 8.6388,1.8601 21.212,1.3697 24.765,9.4606 1.5652,3.564 -2.0987,7.6505 -4.3129,10.852 -4.8178,6.9659 -14.178,10.004 -18.782,17.113 -5.732,8.8503 -9.4486,19.516 -9.878,30.051 -0.5166,12.677 6.6654,24.519 8.9042,37.008 1.2444,6.9416 2.5043,21.008 2.5043,21.008 z"
         id="path4284" />
    </g>
    <path
       style="fill:#ac9d93"
       inkscape:connector-curvature="0"
       d="m 1677.5,-412.1 54.71,-99.181 12.381,1.4064 54.141,76.272 z"
       id="path4224" />
    <path
       style="fill:#aaeeff;fill-opacity:0.8"
       inkscape:connector-curvature="0"
       d="m 1701.3,-472.69 -52.632,65.9 29.249,-5.2442 0.099,-0.17915 120.72,-21.412 -35.625,-50.185 z"
       id="path4226" />
  </g>
  <path
     inkscape:connector-curvature="0"
     style="fill:url(#linearGradient4235);fill-rule:evenodd"
     d="m 502.454,701.589 -0.0893,399.47 c 0,0 301.43,-53.301 501.58,-89.125 461.79,-33.46 643.74,271.73 719.71,360.88 75.948,17.936 182.36,-10.32 256.65,-169.34 -129.3,-265.72 -583.35,-648.03 -975.17,-590.38 -402.21,70.357 -502.69,88.495 -502.69,88.495 z"
     id="path4223" />
  <path
     style="fill:#502d16;fill-rule:evenodd"
     inkscape:connector-curvature="0"
     d="m 1368.534,869.523 -2.5883,45.495 c 137.98,37.605 210.49,137.23 298.03,206.54 l -25.119,39.862 100.48,-17.716 -25.119,-101.87 -25.119,39.862 c -87.6,-62.75 -155.8,-180.39 -320.5,-212.18 z"
     id="path4254" />
  <g
     style="fill:#ff2a2a;fill-rule:evenodd"
     transform="translate(-241.276,659.37)"
     id="g4178">
    <path
       inkscape:connector-curvature="0"
       d="m 1763.4,110.66 c -9.712,1.7125 -17.585,-5.2287 -17.585,-15.504 0,-10.2753 7.8731,-19.993 17.585,-21.705 9.7119,-1.7125 17.585,5.2287 17.585,15.504 0,10.2753 -7.8731,19.993 -17.585,21.705"
       id="path5140" />
    <path
       style="fill-opacity:0.8"
       inkscape:connector-curvature="0"
       d="m 1763.4,149.8 c -30.147,5.3156 -54.585,-16.23 -54.585,-48.124 0,-31.894 24.439,-62.058 54.585,-67.374 30.146,-5.3157 54.585,16.23 54.585,48.124 0,31.894 -24.439,62.058 -54.585,67.374"
       id="path5217" />
    <path
       style="fill-opacity:0.3"
       inkscape:connector-curvature="0"
       d="m 1763.4,200.06 c -56.38,9.9413 -102.09,-30.354 -102.09,-90.002 0,-59.648 45.705,-116.06 102.09,-126 56.38,-9.9413 102.08,30.354 102.08,90.002 0,59.648 -45.705,116.06 -102.08,126"
       id="path5219" />
  </g>
  <path
     style="fill:#502d16;fill-rule:evenodd"
     inkscape:connector-curvature="0"
     d="m 879.164,762.597 0,44.291 -251.19,44.291 0,44.291 251.19,-44.291 0,44.291 125.67,-87.962 z"
     id="path4248" />
  <path
     style="fill:#502d16;fill-rule:evenodd"
     inkscape:connector-curvature="0"
     d="m 2174.634,654.22 0,-29.691 168.39,-29.691 0,-29.691 -168.39,29.691 0,-29.691 -84.24,58.966 z"
     id="path4252" />
</svg>
