<?xml version="1.0" encoding="UTF-8" standalone="no"?>
<!-- Created with Inkscape (http://www.inkscape.org/) -->

<svg
   xmlns:dc="http://purl.org/dc/elements/1.1/"
   xmlns:cc="http://creativecommons.org/ns#"
   xmlns:rdf="http://www.w3.org/1999/02/22-rdf-syntax-ns#"
   xmlns:svg="http://www.w3.org/2000/svg"
   xmlns="http://www.w3.org/2000/svg"
   xmlns:sodipodi="http://sodipodi.sourceforge.net/DTD/sodipodi-0.dtd"
   xmlns:inkscape="http://www.inkscape.org/namespaces/inkscape"
   inkscape:version="0.91 r13725"
   version="1.1"
   id="svg2"
   viewBox="0 0 2637.4806 1483.7597"
   height="1483.7596"
   width="2637.4805"
   sodipodi:docname="Continental-continental conservative plate boundary.svg"
   inkscape:export-filename="/home/adam/Downloads/destructiveplate.png"
   inkscape:export-xdpi="90"
   inkscape:export-ydpi="90">
  <sodipodi:namedview
     inkscape:window-maximized="1"
     inkscape:window-y="30"
     inkscape:window-x="0"
     inkscape:window-height="2051"
     inkscape:window-width="3840"
     units="px"
     showgrid="false"
     inkscape:current-layer="layer1"
     inkscape:document-units="px"
     inkscape:cy="906.23584"
     inkscape:cx="1626.3037"
     inkscape:zoom="1"
     inkscape:pageshadow="2"
     inkscape:pageopacity="0.0"
     borderopacity="1.0"
     bordercolor="#666666"
     pagecolor="#ffffff"
     id="base"
     fit-margin-top="0"
     fit-margin-left="0"
     fit-margin-right="0"
     fit-margin-bottom="0"
     showguides="false">
    <inkscape:grid
       type="axonomgrid"
       id="grid3346"
       units="mm"
       empspacing="5"
       spacingy="8.8582677"
       gridanglex="10"
       gridanglez="10"
       originx="4.499542e-06"
       originy="-88.582805"
       enabled="true"
       snapvisiblegridlinesonly="true" />
  </sodipodi:namedview>
  <defs
     id="defs4">
    <mask
       id="mask5086"
       maskUnits="userSpaceOnUse">
      <path
         style="fill:#000000;fill-rule:evenodd;stroke:none;stroke-width:1px;stroke-linecap:butt;stroke-linejoin:miter;stroke-opacity:1"
         d="m 2432.0396,-737.00749 25.1188,-4.42913 0,1018.70081 -25.1188,-4.4292 z"
         id="path5088"
         inkscape:connector-curvature="0" />
    </mask>
  </defs>
  <metadata
     id="metadata7">
    <rdf:RDF>
      <cc:Work
         rdf:about="">
        <dc:format>image/svg+xml</dc:format>
        <dc:type
           rdf:resource="http://purl.org/dc/dcmitype/StillImage" />
        <dc:title></dc:title>
      </cc:Work>
    </rdf:RDF>
  </metadata>
  <g
     inkscape:label="Layer 1"
     inkscape:groupmode="layer"
     id="layer1"
     transform="translate(-70.866141,519.97977)">
    <path
       style="fill:#ff7f2a;fill-rule:evenodd;stroke:none;stroke-width:1px;stroke-linecap:butt;stroke-linejoin:miter;stroke-opacity:1"
       d="M 70.866141,-186.78474 573.24347,-98.202067 573.25504,963.77225 70.866141,876.20734 Z"
       id="path3360"
       inkscape:connector-curvature="0"
       sodipodi:nodetypes="ccccc" />
    <path
       style="fill:#c87137;fill-rule:evenodd;stroke:none;stroke-width:1px;stroke-linecap:butt;stroke-linejoin:miter;stroke-opacity:1"
       d="m 70.866141,343.70119 502.377329,88.5827 0,-531.49611 -502.377329,-88.58267 0,531.49608 z"
       id="path3366"
       inkscape:connector-curvature="0" />
    <path
       style="fill:none;fill-rule:evenodd;stroke:none;stroke-width:1px;stroke-linecap:butt;stroke-linejoin:miter;stroke-opacity:1"
       d="M 2582.7528,-453.54293 573.24347,-99.21222"
       id="path4189"
       inkscape:connector-curvature="0" />
    <path
       style="fill:#502d16;fill-opacity:1;fill-rule:evenodd;stroke:none;stroke-width:1px;stroke-linecap:butt;stroke-linejoin:miter;stroke-opacity:1"
       d="m 1075.6207,-10.62945 0,-44.29134 251.1887,-44.29134 0,-44.29133 -251.1887,44.29133 0,-44.29133 -125.40708,89.114257 z"
       id="path4191"
       inkscape:connector-curvature="0"
       sodipodi:nodetypes="cccccccc" />
    <path
       style="fill:#502d16;fill-opacity:1;fill-rule:evenodd;stroke:none;stroke-width:1px;stroke-linecap:butt;stroke-linejoin:miter;stroke-opacity:1"
       d="m 1829.1867,-187.7948 251.1886,-44.29134 0,44.29134 125.9687,-88.70628 -125.9687,-44.16773 0,44.29134 -251.1886,44.29133 z"
       id="path4193"
       inkscape:connector-curvature="0"
       sodipodi:nodetypes="cccccccc" />
    <path
       style="fill:none;fill-rule:evenodd;stroke:none;stroke-width:1px;stroke-linecap:butt;stroke-linejoin:miter;stroke-opacity:1"
       d="m 1577.998,-276.37747 125.5944,22.14566 1004.7546,-177.16534 -125.5943,-22.14567 z"
       id="path4282"
       inkscape:connector-curvature="0" />
    <path
       style="fill:#9dd974;fill-opacity:1;fill-rule:evenodd;stroke:none;stroke-width:1px;stroke-linecap:butt;stroke-linejoin:miter;stroke-opacity:1"
       d="m 1201.2151,-342.81448 502.3773,88.58267 1004.7546,-177.16534 -502.3773,-88.58268 z"
       id="path4284"
       inkscape:connector-curvature="0" />
    <path
       style="fill:#aade87;fill-opacity:1;fill-rule:evenodd;stroke:none;stroke-width:1px;stroke-linecap:butt;stroke-linejoin:miter;stroke-opacity:1"
       d="M 70.866145,-187.7948 573.24346,-99.21212 1577.998,-276.37747 1075.6207,-364.96015 70.866145,-187.7948"
       id="path4286"
       inkscape:connector-curvature="0" />
    <path
       style="fill:#a85e2e;fill-opacity:1;fill-rule:evenodd;stroke:none;stroke-width:1px;stroke-linecap:butt;stroke-linejoin:miter;stroke-opacity:1"
       d="M 573.24346,432.28394 1577.998,255.11857 l 0,-531.49604 -1004.75454,177.16535 0,531.49606"
       id="path4288"
       inkscape:connector-curvature="0" />
    <path
       style="fill:#a85e2e;fill-opacity:1;fill-rule:evenodd;stroke:none;stroke-width:1px;stroke-linecap:butt;stroke-linejoin:miter;stroke-opacity:1"
       d="m 1703.5924,-254.23181 0,531.49605 1004.7546,-177.16535 0,-531.49604 z"
       id="path4292"
       inkscape:connector-curvature="0"
       sodipodi:nodetypes="ccccc" />
    <path
       style="fill:#c87137;fill-opacity:1;fill-rule:evenodd;stroke:none;stroke-width:1px;stroke-linecap:butt;stroke-linejoin:miter;stroke-opacity:1"
       d="m 1577.998,255.11857 125.5944,22.14567 0,-531.49605 -125.5944,-22.14566 z"
       id="path4294"
       inkscape:connector-curvature="0" />
    <path
       style="fill:#ff7f2a;fill-opacity:1;fill-rule:evenodd;stroke:none;stroke-width:1px;stroke-linecap:butt;stroke-linejoin:miter;stroke-opacity:1"
       d="m 1577.998,255.11857 0,531.49607 125.5944,22.1457 0,-531.4961 z"
       id="path4296"
       inkscape:connector-curvature="0" />
    <path
       style="fill:#ff6600;fill-opacity:1;fill-rule:evenodd;stroke:none;stroke-width:1px;stroke-linecap:butt;stroke-linejoin:miter;stroke-opacity:1"
       d="m 573.24346,963.77994 1004.75454,-177.1653 0,-531.49607 -1004.75454,177.16537 z"
       id="path4298"
       inkscape:connector-curvature="0" />
    <path
       style="fill:#ff6600;fill-opacity:1;fill-rule:evenodd;stroke:none;stroke-width:1px;stroke-linecap:butt;stroke-linejoin:miter;stroke-opacity:1"
       d="m 1703.5924,277.26424 0,531.4961 1004.7546,-177.1654 0,-531.49605 -1004.7546,177.16535"
       id="path4300"
       inkscape:connector-curvature="0" />
    <g
       style="fill:#ff2a2a;fill-rule:evenodd"
       transform="matrix(1.0000053,0,0,1.0000053,-186.67613,-211.57455)"
       id="g4178">
      <path
         inkscape:connector-curvature="0"
         d="m 1763.4,110.66 c -9.712,1.7125 -17.585,-5.2287 -17.585,-15.504 0,-10.2753 7.8731,-19.993 17.585,-21.705 9.7119,-1.7125 17.585,5.2287 17.585,15.504 0,10.2753 -7.8731,19.993 -17.585,21.705"
         id="path5140" />
      <path
         style="fill-opacity:0.8"
         inkscape:connector-curvature="0"
         d="m 1763.4,149.8 c -30.147,5.3156 -54.585,-16.23 -54.585,-48.124 0,-31.894 24.439,-62.058 54.585,-67.374 30.146,-5.3157 54.585,16.23 54.585,48.124 0,31.894 -24.439,62.058 -54.585,67.374"
         id="path5217" />
      <path
         style="fill-opacity:0.3"
         inkscape:connector-curvature="0"
         d="m 1763.4,200.06 c -56.38,9.9413 -102.09,-30.354 -102.09,-90.002 0,-59.648 45.705,-116.06 102.09,-126 56.38,-9.9413 102.08,30.354 102.08,90.002 0,59.648 -45.705,116.06 -102.08,126"
         id="path5219" />
    </g>
    <path
       style="fill:#4f8b26;fill-opacity:1;fill-rule:evenodd;stroke:none;stroke-width:1px;stroke-linecap:butt;stroke-linejoin:miter;stroke-opacity:1"
       d="m 1464.4576,-354.50118 200.951,35.43307 -50.2378,8.85827 88.7032,1.86587 36.8912,-24.01154 -50.2378,8.85827 -200.9509,-35.43307 z"
       id="path4302"
       inkscape:connector-curvature="0"
       sodipodi:nodetypes="cccccccc" />
    <path
       sodipodi:nodetypes="cccccccc"
       inkscape:connector-curvature="0"
       id="path4304"
       d="m 1289.2776,-273.88222 -200.951,-35.43307 50.2378,-8.85827 -88.7032,-1.86587 -36.8912,24.01154 50.2378,-8.85827 200.9509,35.43307 z"
       style="fill:#4f8b26;fill-opacity:1;fill-rule:evenodd;stroke:none;stroke-width:1px;stroke-linecap:butt;stroke-linejoin:miter;stroke-opacity:1" />
  </g>
</svg>
