<?xml version="1.0" encoding="UTF-8" standalone="no"?>
<!-- Created with Inkscape (http://www.inkscape.org/) -->

<svg
   xmlns:dc="http://purl.org/dc/elements/1.1/"
   xmlns:cc="http://creativecommons.org/ns#"
   xmlns:rdf="http://www.w3.org/1999/02/22-rdf-syntax-ns#"
   xmlns:svg="http://www.w3.org/2000/svg"
   xmlns="http://www.w3.org/2000/svg"
   xmlns:xlink="http://www.w3.org/1999/xlink"
   xmlns:sodipodi="http://sodipodi.sourceforge.net/DTD/sodipodi-0.dtd"
   xmlns:inkscape="http://www.inkscape.org/namespaces/inkscape"
   inkscape:version="0.91 r13725"
   version="1.1"
   id="svg2"
   viewBox="0 0 2511.8866 1506.9156"
   height="1506.9155"
   width="2511.8865"
   sodipodi:docname="Continental-continental constructive plate boundary with rift valley.svg"
   inkscape:export-filename="/home/adam/Downloads/destructiveplate.png"
   inkscape:export-xdpi="90"
   inkscape:export-ydpi="90">
  <sodipodi:namedview
     inkscape:window-maximized="1"
     inkscape:window-y="30"
     inkscape:window-x="0"
     inkscape:window-height="2051"
     inkscape:window-width="3840"
     units="px"
     showgrid="false"
     inkscape:current-layer="layer1"
     inkscape:document-units="px"
     inkscape:cy="871.73115"
     inkscape:cx="1532.6657"
     inkscape:zoom="0.94433593"
     inkscape:pageshadow="2"
     inkscape:pageopacity="0.0"
     borderopacity="1.0"
     bordercolor="#666666"
     pagecolor="#ffffff"
     id="base"
     fit-margin-top="0"
     fit-margin-left="0"
     fit-margin-right="0"
     fit-margin-bottom="0"
     showguides="true">
    <inkscape:grid
       type="axonomgrid"
       id="grid3346"
       units="mm"
       empspacing="5"
       spacingy="8.8582677"
       gridanglex="10"
       gridanglez="10"
       originx="4.499542e-06"
       originy="-87.572696"
       enabled="true"
       snapvisiblegridlinesonly="true" />
  </sodipodi:namedview>
  <defs
     id="defs4">
    <linearGradient
       inkscape:collect="always"
       id="linearGradient4611">
      <stop
         style="stop-color:#502d16;stop-opacity:1;"
         offset="0"
         id="stop4613" />
      <stop
         style="stop-color:#502d16;stop-opacity:0;"
         offset="1"
         id="stop4615" />
    </linearGradient>
    <linearGradient
       inkscape:collect="always"
       id="linearGradient4583">
      <stop
         style="stop-color:#a85e2e;stop-opacity:1;"
         offset="0"
         id="stop4585" />
      <stop
         style="stop-color:#a85e2e;stop-opacity:0;"
         offset="1"
         id="stop4587" />
    </linearGradient>
    <linearGradient
       inkscape:collect="always"
       id="linearGradient4569">
      <stop
         style="stop-color:#a85e2e;stop-opacity:1;"
         offset="0"
         id="stop4571" />
      <stop
         style="stop-color:#a85e2e;stop-opacity:0;"
         offset="1"
         id="stop4573" />
    </linearGradient>
    <mask
       id="mask5086"
       maskUnits="userSpaceOnUse">
      <path
         style="fill:#000000;fill-rule:evenodd;stroke:none;stroke-width:1px;stroke-linecap:butt;stroke-linejoin:miter;stroke-opacity:1"
         d="m 2432.0396,-737.00749 25.1188,-4.42913 0,1018.70081 -25.1188,-4.4292 z"
         id="path5088"
         inkscape:connector-curvature="0" />
    </mask>
    <linearGradient
       inkscape:collect="always"
       xlink:href="#linearGradient4569"
       id="linearGradient4575"
       x1="1354.9722"
       y1="0.29636124"
       x2="1428.5114"
       y2="46.965412"
       gradientUnits="userSpaceOnUse" />
    <linearGradient
       inkscape:collect="always"
       xlink:href="#linearGradient4583"
       id="linearGradient4589"
       x1="1810.349"
       y1="-37.887405"
       x2="1756.6089"
       y2="24.337994"
       gradientUnits="userSpaceOnUse" />
    <linearGradient
       inkscape:collect="always"
       xlink:href="#linearGradient4611"
       id="linearGradient4617"
       x1="1380.4281"
       y1="51.915157"
       x2="1496.7472"
       y2="120.50452"
       gradientUnits="userSpaceOnUse" />
    <linearGradient
       inkscape:collect="always"
       xlink:href="#linearGradient4611"
       id="linearGradient4621"
       gradientUnits="userSpaceOnUse"
       x1="1345.2531"
       y1="48.36763"
       x2="1420.6097"
       y2="-62.360722"
       gradientTransform="matrix(-1,0,0,-1,3149.3212,24.450795)" />
  </defs>
  <metadata
     id="metadata7">
    <rdf:RDF>
      <cc:Work
         rdf:about="">
        <dc:format>image/svg+xml</dc:format>
        <dc:type
           rdf:resource="http://purl.org/dc/dcmitype/StillImage" />
        <dc:title></dc:title>
      </cc:Work>
    </rdf:RDF>
  </metadata>
  <g
     inkscape:label="Layer 1"
     inkscape:groupmode="layer"
     id="layer1"
     transform="translate(-70.866141,542.12554)">
    <path
       style="fill:#ff6600;fill-rule:evenodd;stroke:none;stroke-width:1px;stroke-linecap:butt;stroke-linejoin:miter;stroke-opacity:1"
       d="m 573.24347,-99.257067 2009.50933,-354.299043 0,1141.0053 -2009.50933,276.3307 z"
       id="path3356"
       inkscape:connector-curvature="0"
       sodipodi:nodetypes="ccccc" />
    <path
       style="fill:#b66836;fill-opacity:1;fill-rule:evenodd;stroke:none;stroke-width:1px;stroke-linecap:butt;stroke-linejoin:miter;stroke-opacity:1"
       d="M 2582.7528,-453.54293 2080.3755,-542.1256 70.866141,-187.79489 573.24347,-99.21222 2582.7528,-453.54293 Z"
       id="path3364"
       inkscape:connector-curvature="0" />
    <path
       style="fill:#aade87;fill-opacity:1;fill-rule:evenodd;stroke:none;stroke-width:1px;stroke-linecap:butt;stroke-linejoin:miter;stroke-opacity:1"
       d="m 2080.3754,-542.12554 502.3773,88.58268 -1004.7546,177.16535 -25.1189,-101.87008 -226.0753,-31.01366 z"
       id="path4187"
       inkscape:connector-curvature="0"
       sodipodi:nodetypes="cccccc" />
    <path
       style="fill:#ff7f2a;fill-rule:evenodd;stroke:none;stroke-width:1px;stroke-linecap:butt;stroke-linejoin:miter;stroke-opacity:1"
       d="m 70.866141,-186.78474 502.377329,88.582673 0,1062.992107 -502.377329,-88.5827 z"
       id="path3360"
       inkscape:connector-curvature="0" />
    <path
       style="fill:#c87137;fill-rule:evenodd;stroke:none;stroke-width:1px;stroke-linecap:butt;stroke-linejoin:miter;stroke-opacity:1"
       d="m 70.866141,343.70119 502.377329,88.5827 0,-531.49611 -502.377329,-88.58267 0,531.49608 z"
       id="path3366"
       inkscape:connector-curvature="0" />
    <path
       style="fill:#915128;fill-opacity:1;fill-rule:evenodd;stroke:none;stroke-width:1px;stroke-linecap:butt;stroke-linejoin:miter;stroke-opacity:1"
       d="m 1628.2288,-391.5377 -451.8617,-79.91248 -0.7488,79.3474 471.1923,108.60343 z"
       id="path4185"
       inkscape:connector-curvature="0"
       sodipodi:nodetypes="ccccc" />
    <path
       style="fill:none;fill-rule:evenodd;stroke:none;stroke-width:1px;stroke-linecap:butt;stroke-linejoin:miter;stroke-opacity:1"
       d="M 2582.7528,-453.54293 573.24347,-99.21222"
       id="path4189"
       inkscape:connector-curvature="0" />
    <path
       style="fill:#8bd25c;fill-opacity:1;fill-rule:evenodd;stroke:none;stroke-width:1px;stroke-linecap:butt;stroke-linejoin:miter;stroke-opacity:1"
       d="m 1653.3201,-334.3942 -477.2239,-83.71555 -50.2378,8.85827 326.5453,110.72834 z"
       id="path4167"
       inkscape:connector-curvature="0"
       sodipodi:nodetypes="ccccc" />
    <path
       style="fill:#9c572b;fill-opacity:1;fill-rule:evenodd;stroke:none;stroke-width:1px;stroke-linecap:butt;stroke-linejoin:miter;stroke-opacity:1"
       d="m 1452.4037,-298.52314 -2.3826,167.82204 232.7192,-43.63989 -29.3857,-159.61522 z"
       id="path4165"
       inkscape:connector-curvature="0"
       sodipodi:nodetypes="ccccc" />
    <path
       style="fill:#ff6600;fill-opacity:1;fill-rule:evenodd;stroke:none;stroke-width:1px;stroke-linecap:butt;stroke-linejoin:miter;stroke-opacity:1"
       d="m 1451.8109,-127.70925 238.5975,-36.78258 c 0,0 -9.137,-33.46861 -24.1556,-40.86746 -20.2354,-9.96898 -46.007,2.90977 -68.9383,5.06706 -22.6127,2.12732 -45.2871,4.12044 -67.6608,7.764 -22.7565,3.70589 -41.4159,8.90751 -67.5356,14.30838 -26.9606,5.57473 -10.3072,50.5106 -10.3072,50.5106 z"
       id="path4179"
       inkscape:connector-curvature="0"
       sodipodi:nodetypes="ccaaasc" />
    <path
       style="fill:#864a25;fill-rule:evenodd;stroke:none;stroke-width:1px;stroke-linecap:butt;stroke-linejoin:miter;stroke-opacity:1;fill-opacity:1"
       d="m 1628.2357,-373.81841 -25.1188,4.42913 0,44.29134 50.2377,-8.85827 -25.1189,-39.8622"
       id="path4207"
       inkscape:connector-curvature="0" />
    <path
       style="fill:url(#linearGradient4589);fill-opacity:1;fill-rule:evenodd;stroke:none;stroke-width:1px;stroke-linecap:butt;stroke-linejoin:miter;stroke-opacity:1"
       d="m 2582.7527,-453.54286 0,531.49605 -627.9717,110.7283 c -103.544,2.93426 -340.1549,-379.48219 -326.5442,-580.22595 75.0924,84.11474 200.9502,62.01738 326.5442,48.72994 z"
       id="path4175"
       inkscape:connector-curvature="0"
       sodipodi:nodetypes="cccccc" />
    <path
       style="fill:#9bd872;fill-rule:evenodd;stroke:none;stroke-width:1px;stroke-linecap:butt;stroke-linejoin:miter;stroke-opacity:1;fill-opacity:1"
       d="m 1603.1169,-369.38928 -452.1396,-79.7244 25.1189,-4.42914 452.1395,79.72441 z"
       id="path4209"
       inkscape:connector-curvature="0" />
    <path
       style="fill:#ae6031;fill-rule:evenodd;stroke:none;stroke-width:1px;stroke-linecap:butt;stroke-linejoin:miter;stroke-opacity:1;fill-opacity:1"
       d="m 1603.1169,-369.38928 0,44.29134 -452.1396,-79.72441 0,-44.29133 z"
       id="path4211"
       inkscape:connector-curvature="0" />
    <path
       style="fill:#ae6031;fill-rule:evenodd;stroke:none;stroke-width:1px;stroke-linecap:butt;stroke-linejoin:miter;stroke-opacity:1;fill-opacity:1"
       d="m 1603.1169,-325.09794 0,-17.71654 -25.1189,4.42914 0,17.71653 z"
       id="path4213"
       inkscape:connector-curvature="0" />
    <path
       style="fill:#864a25;fill-rule:evenodd;stroke:none;stroke-width:1px;stroke-linecap:butt;stroke-linejoin:miter;stroke-opacity:1;fill-opacity:1"
       d="m 1577.998,-320.66881 0,-17.71653 -452.1396,-79.72441 0,17.71654 452.1396,79.7244"
       id="path4217"
       inkscape:connector-curvature="0" />
    <path
       style="fill:#9bd872;fill-rule:evenodd;stroke:none;stroke-width:1px;stroke-linecap:butt;stroke-linejoin:miter;stroke-opacity:1;fill-opacity:1"
       d="m 1603.1169,-342.81448 c 0,0 -452.1396,-79.7244 -452.1396,-79.7244 l -25.1189,4.42913 452.1396,79.72441 z"
       id="path4215"
       inkscape:connector-curvature="0" />
    <path
       style="fill:#aade87;fill-opacity:1;fill-rule:evenodd;stroke:none;stroke-width:1px;stroke-linecap:butt;stroke-linejoin:miter;stroke-opacity:1"
       d="m 1452.2692,-360.64441 c -118.2969,-21.68946 -298.071,-52.44798 -452.27603,-79.28144 -41.2351,53.32519 -151.77687,112.62673 -301.15538,141.40267 L 70.866145,-187.79484 573.24346,-99.21216 1452.387,-254.23739 Z"
       id="path4177"
       inkscape:connector-curvature="0"
       sodipodi:nodetypes="ccccccc" />
    <path
       style="fill:#ae6031;fill-rule:evenodd;stroke:none;stroke-width:1px;stroke-linecap:butt;stroke-linejoin:miter;stroke-opacity:1;fill-opacity:1"
       d="m 1502.6414,-307.38141 0,-17.71653 -25.1189,4.42913 0,17.71654 25.1189,-4.42914"
       id="path4219"
       inkscape:connector-curvature="0" />
    <path
       style="fill:#864a25;fill-rule:evenodd;stroke:none;stroke-width:1px;stroke-linecap:butt;stroke-linejoin:miter;stroke-opacity:1;fill-opacity:1"
       d="m 1477.5225,-302.95227 0,-26.57481 -25.1188,4.42914 0,26.5748 z"
       id="path4221"
       inkscape:connector-curvature="0" />
    <path
       style="fill:#aade87;fill-rule:evenodd;stroke:none;stroke-width:1px;stroke-linecap:butt;stroke-linejoin:miter;stroke-opacity:1;fill-opacity:1"
       d="m 1477.5225,-329.52708 -25.1188,-4.42913 0,8.85827"
       id="path4223"
       inkscape:connector-curvature="0" />
    <path
       style="fill:url(#linearGradient4575);fill-opacity:1;fill-rule:evenodd;stroke:none;stroke-width:1px;stroke-linecap:butt;stroke-linejoin:miter;stroke-opacity:1"
       d="m 573.24346,-99.21216 0,531.49605 627.97164,-110.7283 c 242.0901,-77.39982 265.5345,-521.38327 251.1185,-681.95727 -36.6271,72.32347 -89.5577,122.81761 -251.1185,150.46117 z"
       id="path4173"
       inkscape:connector-curvature="0"
       sodipodi:nodetypes="cccccc" />
    <path
       style="fill:#aade87;fill-rule:evenodd;stroke:none;stroke-width:1px;stroke-linecap:butt;stroke-linejoin:miter;stroke-opacity:1;fill-opacity:1"
       d="m 1502.6414,-325.09794 -25.1189,-4.42914 0,8.85827 z"
       id="path4225"
       inkscape:connector-curvature="0" />
    <g
       id="g4227">
      <path
         style="fill:url(#linearGradient4621);fill-opacity:1;fill-rule:evenodd;stroke:none;stroke-width:1px;stroke-linecap:butt;stroke-linejoin:miter;stroke-opacity:1"
         d="m 2199.2947,-93.364601 -125.5943,84.1535954 0,-44.2913974 -251.1887,44.2913974 c -29.1942,2.5765434 -70.5212,29.2511486 -93.6704,104.9223516 l -46.9142,7.817414 c -1.299,-48.057142 46.2808,-149.831813 140.5846,-157.031163 l 251.1887,-44.291298 0,-44.291399 z"
         id="path4619"
         inkscape:connector-curvature="0"
         sodipodi:nodetypes="cccccccccc" />
      <path
         sodipodi:nodetypes="cccccccc"
         inkscape:connector-curvature="0"
         id="path4623"
         d="m 1576.1598,401.53005 25.1189,-4.4291 0,-451.771683 25.1189,-4.42913 -37.9914,-28.962893 -37.3652,42.250293 25.1188,-4.42913 0,451.771643"
         style="fill:#cc5300;fill-opacity:1;fill-rule:evenodd;stroke:none;stroke-width:1px;stroke-linecap:butt;stroke-linejoin:miter;stroke-opacity:1" />
      <path
         sodipodi:nodetypes="cccccccccc"
         inkscape:connector-curvature="0"
         id="path4627"
         d="m 1954.781,675.8863 25.1188,-4.4292 c 7.6366,-131.93699 28.7971,-393.51588 226.0698,-438.4842 225.8341,-29.47921 230.5507,216.5491 251.1887,354.3307 l -25.1189,4.4291 40.2929,19.7174 35.0637,-33.0048 -25.1188,4.4292 C 2467.302,406.28087 2437.5399,179.71273 2207.3839,212.80093 1941.4219,246.79156 1954.8535,662.70474 1954.781,675.8863"
         style="fill:#cc5300;fill-opacity:1;fill-rule:evenodd;stroke:none;stroke-width:1px;stroke-linecap:butt;stroke-linejoin:miter;stroke-opacity:1" />
      <path
         sodipodi:nodetypes="cccccccccc"
         inkscape:connector-curvature="0"
         id="path4629"
         d="m 1327.1052,742.5878 -26.1795,5.13631 C 1297.3761,618.24393 1261.7367,382.42998 1021.5264,439.05458 835.68413,487.77523 852.05106,763.09417 852.05096,825.1018 l 25.11887,-4.4291 -33.95771,32.77167 -43.89889,-18.10927 27.61887,-5.8042 c -14.0906,-162.43655 12.14278,-358.40032 189.3339,-415.67411 259.2901,-58.00701 305.4742,174.08452 310.8392,328.73101 z"
         style="fill:#cc5300;fill-opacity:1;fill-rule:evenodd;stroke:none;stroke-width:1px;stroke-linecap:butt;stroke-linejoin:miter;stroke-opacity:1" />
      <path
         sodipodi:nodetypes="cccccccccc"
         inkscape:connector-curvature="0"
         id="path4593"
         d="m 950.02645,117.81539 125.59425,-84.15354 0,44.29134 251.1887,-44.29134 c 74.224,-6.873867 160.5031,-0.418493 194.5943,93.68704 l -36.8566,14.0374 C 1441.9112,63.874069 1387.787,66.376885 1326.8094,77.95319 l -251.1887,44.2913 0,44.2914 z"
         style="fill:url(#linearGradient4617);fill-opacity:1;fill-rule:evenodd;stroke:none;stroke-width:1px;stroke-linecap:butt;stroke-linejoin:miter;stroke-opacity:1" />
    </g>
  </g>
</svg>
