<?xml version="1.0" encoding="UTF-8" standalone="no"?>
<svg id="svg2" xmlns:rdf="http://www.w3.org/1999/02/22-rdf-syntax-ns#" xmlns="http://www.w3.org/2000/svg" viewBox="0 0 2687.5773 1912.8317" height="1912.8" width="2687.6" version="1.1" xmlns:cc="http://creativecommons.org/ns#" xmlns:xlink="http://www.w3.org/1999/xlink" xmlns:dc="http://purl.org/dc/elements/1.1/">
 <defs id="defs4">
  <linearGradient id="linearGradient4235" y2="430" gradientUnits="userSpaceOnUse" x2="2140.4" y1="301.27" x1="1981.4">
   <stop id="stop4227" stop-color="#a05a2c" offset="0"/>
   <stop id="stop4229" stop-color="#a05a2c" stop-opacity="0" offset="1"/>
  </linearGradient>
  <mask id="mask5086" maskUnits="userSpaceOnUse">
   <path id="path5088" fill-rule="evenodd" d="m2432-737.01 25.119-4.4291v1018.7l-25.119-4.4292z"/>
  </mask>
 </defs>
 <g id="layer1" transform="translate(-70.866 948.04)">
  <path id="path3364" d="m2582.8-453.54-502.4-88.59-2009.5 354.34 502.34 88.578 2009.6-354.33z" fill-rule="evenodd" fill="#b66836"/>
  <path id="path4738" d="m2180.9-382.68-555.42-114.66 354.47-62.503 602.85 106.3z" fill-rule="evenodd" fill="#aade87"/>
  <path id="path4568" d="m975.15-205.51 42.85 70.87 693 126 407-384z" fill-rule="evenodd" fill="#b66836"/>
  <path id="path4740" d="m2226.9-391.43-601.42-105.91-18.407 3.1234-29.59 41.136 603.16 104.84z" fill-rule="evenodd" fill="#ffe680"/>
  <path id="path4732" d="m2430.4-734.32s-174.2 170.05-289.41 203.19c-97.39 28.009-146.12 118.86-148.5 181.5 184.23-65.118 389.3-236.78 437.91-384.69z" fill-rule="evenodd" fill="#999"/>
  <path id="path4570" d="m1075.6-187.79-502.38 88.583v-35.433l1535.2-270.87s-68.764 37.524-128.51 58.274c-108.44 79.134-287.9 281.61-287.9 281.61l-314-93z" fill-opacity=".8" fill-rule="evenodd" fill="#5df"/>
  <path id="path5117" d="m2458.1-728.34-0.9374-1.8828-11.016-5.9453-1.5312 2.5-3.1094 635.53 23.5-3.5 1-610z" fill-rule="evenodd" fill="#f60"/>
  <path id="path3356" fill-rule="evenodd" fill="#f60" d="m573.24 134.79 2009.5-276.33v828.99l-2009.5 276.33z"/>
  <path id="path3360" fill-rule="evenodd" fill="#ff7f2a" d="m70.866-186.78 502.38 88.583v1063l-502.38-88.583z"/>
  <path id="path3366" fill-rule="evenodd" fill="#c87137" d="m70.866 343.7 502.38 88.583v-531.5l-502.38-88.583v531.5z"/>
  <path id="path4189" fill="none" d="m2582.8-453.54-2009.6 354.33"/>
  <path id="path4211" d="m70.866-223.23v35.433l502.38 88.583v-35.433z" fill-opacity=".9" fill-rule="evenodd" fill="#d5f6ff"/>
  <path id="path4223" d="m573.32-99.201-0.0893 531.47s301.43-53.301 501.58-89.125c503.17-88.192 558.89 226.82 836.03 367.81 119.52-5.5248 329.56-16.67 330.71-136.31 11.645-462.04-764.05-833.47-1165.5-762.34-402.21 70.357-502.69 88.495-502.69 88.495z" fill-rule="evenodd" fill="url(#linearGradient4235)"/>
  <path id="path4297" d="m2582.8 494.09c-45.514 7.4317-86.429 14.122-125.59 20.549v664.44c49.278-50.795 92.565-109 125.59-153.49zm-136.57 22.354c-186.49 30.637-311.63 52.162-466.28 83.947-182.83 69.152-393.58 117.57-300.44 271.71 246.98 124.16 396.67 257.63 501.39 401.52 91.358 51.688 185.53-4.5363 265.33-83.465z" fill-rule="evenodd" transform="translate(0 -947.64)" fill="#905228"/>
  <path id="path4574" d="m70.866-223.23 502.37 88.58 1534.9-270.74-502.4-88.59z" fill-opacity=".8" fill-rule="evenodd" fill="#aef"/>
  <path id="path4578" d="m2439.8 210.55c-10.3 0.15-20 8.96-28.3 29.45-157.7 276.48-435.9 361.54-435.9 361.54l470.61-83.281v-306.76c-2.1417-0.64917-4.2584-0.98031-6.3457-0.95118zm17.322 6.8711v298.89l125.59-22.225s-68.499-233.39-125.59-276.67z" fill-rule="evenodd" transform="translate(0 -947.64)" fill="#6c5d53"/>
  <path id="path5082" d="m1975.6-346.09 607.18-107.45s-115.09-392.15-171.25-254.09c-157.65 276.48-435.93 361.54-435.93 361.54z" fill-rule="evenodd" mask="url(#mask5086)" fill="#6c5d53"/>
  <path id="path5115" d="m2451.4-564.27c-8.5021 1.0542-17.077 3.7871-25.119 7.5436-8.9595 4.1852-20.232 7.6818-25.119 16.402-4.5704 8.1548-4.5704 19.553 0 26.575 4.8872 7.5082 16.159 8.2095 25.119 10.173 8.0418 1.7624 16.617 2.3688 25.119 1.3147 8.5021-1.0542 17.077-3.7871 25.119-7.5436 8.9595-4.1852 20.232-7.6818 25.119-16.402 4.5704-8.1548 4.5704-19.553 0-26.575-4.8872-7.5082-16.159-8.2095-25.119-10.173-8.0419-1.7624-16.617-2.3688-25.119-1.3146z" fill-rule="evenodd" fill="#f60"/>
  <path id="path5125" d="m1794.1-0.4043c17.393 4.449 61.039 15.595 89.027 22.402 98.099 23.861 187.86 32.175 292.39 68.5 84.855 29.488 176.11 81.821 263.29 118.38 6.1744 2.5887 13.89 7.2602 18.344 7.125 72.457-2.1993 25.186-97.611 66.475-127 47.267-33.644 149.68-22.606 201.92-52.5 13.394-7.6641 27.357-28.137 32.938-36.902h-964.38z" fill-rule="evenodd" transform="translate(0 -947.64)" fill="#e6e6e6"/>
  <path id="path5127" d="m1867.5-0.4043c5.9446 3.5487 12.704 7.3481 17.295 9.1641 94.331 37.315 159.25 17.693 251.87 50.205 56.192 19.723 116.45 55.405 174.71 84.498 42.806 21.376 85.688 46.682 128.36 66.115 5.45 2.482 12.483 6.7571 16.106 6.3574 7.9083-0.87246 1.8929-11.878 2.4433-18.025 3.9121-43.695-16.657-101.33 6.1075-134 11.203-16.078 36.75-22.406 62.162-27.578 45.284-9.2172 119.17 8.7825 158.46-5.6562 13.264-4.8743 24.752-21.202 30.715-31.084h-848.23z" fill-rule="evenodd" transform="translate(0 -947.64)" fill="#ccc"/>
  <path id="path5129" d="m1899.9-0.4043c15.264 6.572 29.371 9.185 42.693 11.652 38.406 7.1131 67.018 1.6152 104.9 8 38.763 6.5325 78.42 10.306 123.7 30.75 24.759 11.178 47.445 32.092 72.049 46.25 52.144 30.005 107.71 47.218 157.98 80.75 14.061 9.3788 22.454 22.742 36.9 31.5 5.2517 3.1838 13.291 7.5614 15.783 6.25 11.512-6.0578-23.32-35.37-29.908-51.5-10.271-25.145-16.625-49.394-14.352-69 4.1897-36.132 16.461-69.888 51.166-86 36.019-16.722 159.58 34.299 155.31-7.5-0.034-0.32734-0.2186-0.72583-0.4688-1.1523h-715.76z" fill-rule="evenodd" transform="translate(0 -947.64)" fill="#ececec"/>
  <path id="path5140" d="m1912.5 79.935c-9.712 1.7125-17.585-5.2287-17.585-15.504s7.8731-19.993 17.585-21.705c9.7119-1.7125 17.585 5.2287 17.585 15.504s-7.8731 19.993-17.585 21.705" fill-rule="evenodd" fill="#ff2a2a"/>
  <path id="path5217" d="m1912.5 119.08c-30.147 5.3156-54.585-16.23-54.585-48.124s24.439-62.058 54.585-67.374c30.146-5.3157 54.585 16.23 54.585 48.124s-24.439 62.058-54.585 67.374" fill-rule="evenodd" fill-opacity=".8" fill="#ff2a2a"/>
  <path id="path5219" d="m1912.5 169.33c-56.38 9.9413-102.09-30.354-102.09-90.002s45.705-116.06 102.09-126c56.38-9.9413 102.08 30.354 102.08 90.002s-45.705 116.06-102.08 126" fill-opacity=".3" fill-rule="evenodd" fill="#ff2a2a"/>
  <path id="path4248" d="m950.03 55.807v44.291l-251.19 44.291v44.291l251.19-44.291v44.291l125.67-87.962z" fill-rule="evenodd" fill="#502d16"/>
  <path id="path4252" d="m2245.5-26.566v-29.691l168.39-29.691v-29.691l-168.39 29.691v-29.691l-84.24 58.966z" fill-rule="evenodd" fill="#502d16"/>
  <path id="path4254" d="m1490.3 94.886-2.5883 45.495c137.98 37.605 210.49 137.23 298.03 206.54l-25.119 39.862 100.48-17.716-25.119-101.87-25.119 39.862c-87.645-62.748-155.78-180.39-320.56-212.17z" fill-rule="evenodd" fill="#502d16"/>
  <path id="path4256" d="m2086.6 511.06-5.4661 11.513c232.95 133.23 382.9 50.194 385.21-187.43l16.898-1.6093-30.175-39.026-22.933 44.659 20.921-3.2187c2.3243 232.72-160.81 298-364.46 175.11z" fill-rule="evenodd" fill="#d45500"/>
 </g>
</svg>