<svg xmlns="http://www.w3.org/2000/svg" width="2511.9" height="1537">
  <defs>
    <linearGradient id="a" x1="1981.4" x2="2140.4" y1="301.3" y2="430" gradientUnits="userSpaceOnUse">
      <stop stop-color="#a05a2c" offset="0"/>
      <stop stop-color="#a05a2c" stop-opacity="0" offset="1"/>
    </linearGradient>
  </defs>
  <path fill="#aade87" d="M2512 118.7L2009.4 30 0 384.5 502.4 473 2512 118.7z"/>
  <path fill="#f60" d="M502.4 707L2512 430.7v829L502.3 1536z"/>
  <path fill="#ff7f2a" d="M0 385.4L502.4 474v1063L0 1448.4z"/>
  
  <path fill="#c87137" d="M0 916l502.4 88.5V473L0 384.5"/>
  
  <path fill="#502d16" d="M1284.7 11.6l-209.5 155.8 406-11.4z"/>
  <path fill="#764220" d="M835 242c103.6-78 218.3-147 300-242 99 65.2 205 122.2 333 153z"/>
  <path fill="#a85e2e" d="M1381.5 96.5l-628 155c-36.7 97-5 123.4 0 177.2 229.8-70.8 410-131 628-332.2z"/>
  <path fill="#8b4e26" d="M2512 118.7v531.5l-702.2 128.4c-301-148-227.6-415.4-929.7-366.4l-126 16.5c230.8-93 503.6-224.4 628-332.2 158 47.8 405.5 95.2 628 110.7z"/>
  
  <path fill="url(#a)" d="M573.2 432.3S874.7 379 1074.8 343c503.2-88 475.5 213 752.6 354 119.5-5.5 271.6 45.6 272.7-74 12-462-622.2-881.6-1024-810.5C674-117 573.7-99 573.7-99v531.5z" transform="translate(-71.3 572)"/>
  
  <g fill="#ff2a2a">
    <path d="M1636.6 592.7c-9.7 1.8-17.6-5.2-17.6-15.5s8-20 17.6-21.7c9.7-1.7 17.6 5.3 17.6 15.5s-8 20-17.6 21.7"/>
    <path fill-opacity=".8" d="M1636.6 632c-30.2 5.2-54.6-16.3-54.6-48.2s24.4-62 54.6-67.4c30-5.3 54.6 16.2 54.6 48s-24.5 62.2-54.6 67.5"/>
    <path fill-opacity=".3" d="M1636.6 682c-56.4 10-102-30.2-102-90s45.6-116 102-126c56.4-9.8 102 30.5 102 90s-45.7 116.2-102 126"/>
  </g>
  <path fill="#502d16" d="M879.2 628v44.3L628 716.6V761l251.2-44.4V761l125.6-88zm1295.4-82.4V516l168.4-29.7v-29.7l-168.4 29.7v-29.7l-84.2 59zM1378.4 711l-14.6 36.6c126 31.2 216 101.5 310 188.5l-25 40 100.4-17.4-25-102-25.2 40c-98.5-76.5-193.6-160.5-320.6-185.2zM1906 521.7l9.5-37.5c-128.2-19.4-224.5-81-326-159l21.2-42-98.4 27 34.4 99 21.4-42c105.5 67 209.5 141.7 338 154.5z"/>
</svg>
